solid mfdbuttons2.6
facet normal 0.032982725354438754 -0.9994559219036095 0.0
  outer loop
    vertex 297.4828484167392 -3.029741324666458 0.0
    vertex 297.0918299278948 -3.042645200808888 -9.999999999999998
    vertex 297.4828484167392 -3.029741324666458 -9.999999999999998
  endloop
endfacet
facet normal 0.032982725354438754 -0.9994559219036095 0.0
  outer loop
    vertex 297.0918299278948 -3.042645200808888 -9.999999999999998
    vertex 297.4828484167392 -3.029741324666458 0.0
    vertex 297.0918299278948 -3.042645200808888 0.0
  endloop
endfacet
facet normal 1.0 0.0 0.0
  outer loop
    vertex 297.4828484167392 -1.8118030108468597 -9.999999999999998
    vertex 297.4828484167392 -3.029741324666458 0.0
    vertex 297.4828484167392 -3.029741324666458 -9.999999999999998
  endloop
endfacet
facet normal 1.0 0.0 0.0
  outer loop
    vertex 297.4828484167392 -3.029741324666458 0.0
    vertex 297.4828484167392 -1.8118030108468597 -9.999999999999998
    vertex 297.4828484167392 -1.8118030108468597 0.0
  endloop
endfacet
facet normal -0.22681936108789694 -0.9739368446853618 -0.0
  outer loop
    vertex 297.0918299278948 -3.042645200808888 0.0
    vertex 296.07483578549807 -2.805798260612183 -9.999999999999998
    vertex 297.0918299278948 -3.042645200808888 -9.999999999999998
  endloop
endfacet
facet normal -0.22681936108789694 -0.9739368446853618 -0.0
  outer loop
    vertex 296.07483578549807 -2.805798260612183 -9.999999999999998
    vertex 297.0918299278948 -3.042645200808888 0.0
    vertex 296.07483578549807 -2.805798260612183 0.0
  endloop
endfacet
facet normal 0.0 0.0 -1.0
  outer loop
    vertex 293.73885316697385 2.3462096203942555 -9.999999999999998
    vertex 293.5364471031736 0.2855740717746541 -9.999999999999998
    vertex 293.50200622677716 1.329215477997525 -9.999999999999998
  endloop
endfacet
facet normal 0.0 0.0 -1.0
  outer loop
    vertex 293.5364471031736 0.2855740717746541 -9.999999999999998
    vertex 293.73885316697385 2.3462096203942555 -9.999999999999998
    vertex 293.839828707353 -0.7135921611392381 -9.999999999999998
  endloop
endfacet
facet normal 0.0 0.0 -1.0
  outer loop
    vertex 293.839828707353 -0.7135921611392381 -9.999999999999998
    vertex 293.73885316697385 2.3462096203942555 -9.999999999999998
    vertex 294.2308471961974 3.2672500288227972 -9.999999999999998
  endloop
endfacet
facet normal 0.0 0.0 -1.0
  outer loop
    vertex 293.839828707353 -0.7135921611392381 -9.999999999999998
    vertex 294.2308471961974 3.2672500288227972 -9.999999999999998
    vertex 294.39147608435235 -1.6001916931713382 -9.999999999999998
  endloop
endfacet
facet normal 0.0 0.0 -1.0
  outer loop
    vertex 294.39147608435235 -1.6001916931713382 -9.999999999999998
    vertex 294.2308471961974 3.2672500288227972 -9.999999999999998
    vertex 294.9444597344147 4.0295693215399835 -9.999999999999998
  endloop
endfacet
facet normal 0.0 0.0 -1.0
  outer loop
    vertex 294.39147608435235 -1.6001916931713382 -9.999999999999998
    vertex 294.9444597344147 4.0295693215399835 -9.999999999999998
    vertex 294.73284841673916 0.9381969891531465 -9.999999999999998
  endloop
endfacet
facet normal 0.0 0.0 -1.0
  outer loop
    vertex 294.73284841673916 0.9381969891531465 -9.999999999999998
    vertex 294.9444597344147 4.0295693215399835 -9.999999999999998
    vertex 294.82655239444426 1.64994936318508 -9.999999999999998
  endloop
endfacet
facet normal 0.0 0.0 -1.0
  outer loop
    vertex 294.82655239444426 1.64994936318508 -9.999999999999998
    vertex 294.9444597344147 4.0295693215399835 -9.999999999999998
    vertex 295.101278556332 2.3131969891531496 -9.999999999999998
  endloop
endfacet
facet normal 0.0 0.0 -1.0
  outer loop
    vertex 295.101278556332 2.3131969891531496 -9.999999999999998
    vertex 294.9444597344147 4.0295693215399835 -9.999999999999998
    vertex 295.8310592664468 4.581216698539334 -9.999999999999998
  endloop
endfacet
facet normal 0.0 0.0 -1.0
  outer loop
    vertex 295.101278556332 2.3131969891531496 -9.999999999999998
    vertex 295.8310592664468 4.581216698539334 -9.999999999999998
    vertex 295.53830476847617 2.8827406374161573 -9.999999999999998
  endloop
endfacet
facet normal 0.0 0.0 -1.0
  outer loop
    vertex 295.53830476847617 2.8827406374161573 -9.999999999999998
    vertex 295.8310592664468 4.581216698539334 -9.999999999999998
    vertex 296.1078484167392 3.3197668495603576 -9.999999999999998
  endloop
endfacet
facet normal 0.0 0.0 -1.0
  outer loop
    vertex 296.1078484167392 3.3197668495603576 -9.999999999999998
    vertex 295.8310592664468 4.581216698539334 -9.999999999999998
    vertex 296.83022549936067 4.884598302718742 -9.999999999999998
  endloop
endfacet
facet normal 0.0 0.0 -1.0
  outer loop
    vertex 296.1078484167392 3.3197668495603576 -9.999999999999998
    vertex 296.83022549936067 4.884598302718742 -9.999999999999998
    vertex 296.77109604270726 3.5944930114480913 -9.999999999999998
  endloop
endfacet
facet normal 0.0 0.0 -1.0
  outer loop
    vertex 296.77109604270726 3.5944930114480913 -9.999999999999998
    vertex 296.83022549936067 4.884598302718742 -9.999999999999998
    vertex 297.4828484167392 3.688196989153152 -9.999999999999998
  endloop
endfacet
facet normal 0.0 0.0 -1.0
  outer loop
    vertex 297.4828484167392 3.688196989153152 -9.999999999999998
    vertex 296.83022549936067 4.884598302718742 -9.999999999999998
    vertex 297.4828484167392 4.906135302972751 -9.999999999999998
  endloop
endfacet
facet normal 0.0 0.0 -1.0
  outer loop
    vertex 294.73284841673916 0.9381969891531465 -9.999999999999998
    vertex 295.1537953770695 -2.313804231388665 -9.999999999999998
    vertex 294.39147608435235 -1.6001916931713382 -9.999999999999998
  endloop
endfacet
facet normal 0.0 0.0 -1.0
  outer loop
    vertex 295.1537953770695 -2.313804231388665 -9.999999999999998
    vertex 294.73284841673916 0.9381969891531465 -9.999999999999998
    vertex 294.82655239444426 0.22644461512121034 -9.999999999999998
  endloop
endfacet
facet normal 0.0 0.0 -1.0
  outer loop
    vertex 295.1537953770695 -2.313804231388665 -9.999999999999998
    vertex 294.82655239444426 0.22644461512121034 -9.999999999999998
    vertex 295.101278556332 -0.436803010846858 -9.999999999999998
  endloop
endfacet
facet normal 0.0 0.0 -1.0
  outer loop
    vertex 295.1537953770695 -2.313804231388665 -9.999999999999998
    vertex 295.101278556332 -0.436803010846858 -9.999999999999998
    vertex 295.53830476847617 -1.006346659109864 -9.999999999999998
  endloop
endfacet
facet normal 0.0 0.0 -1.0
  outer loop
    vertex 295.1537953770695 -2.313804231388665 -9.999999999999998
    vertex 295.53830476847617 -1.006346659109864 -9.999999999999998
    vertex 296.07483578549807 -2.805798260612183 -9.999999999999998
  endloop
endfacet
facet normal 0.0 0.0 -1.0
  outer loop
    vertex 296.07483578549807 -2.805798260612183 -9.999999999999998
    vertex 295.53830476847617 -1.006346659109864 -9.999999999999998
    vertex 296.1078484167392 -1.443372871254066 -9.999999999999998
  endloop
endfacet
facet normal 0.0 0.0 -1.0
  outer loop
    vertex 296.07483578549807 -2.805798260612183 -9.999999999999998
    vertex 296.1078484167392 -1.443372871254066 -9.999999999999998
    vertex 297.0918299278948 -3.042645200808888 -9.999999999999998
  endloop
endfacet
facet normal 0.0 0.0 -1.0
  outer loop
    vertex 297.0918299278948 -3.042645200808888 -9.999999999999998
    vertex 296.1078484167392 -1.443372871254066 -9.999999999999998
    vertex 296.77109604270726 -1.7180990331417973 -9.999999999999998
  endloop
endfacet
facet normal 0.0 0.0 -1.0
  outer loop
    vertex 297.0918299278948 -3.042645200808888 -9.999999999999998
    vertex 296.77109604270726 -1.7180990331417973 -9.999999999999998
    vertex 297.4828484167392 -1.8118030108468597 -9.999999999999998
  endloop
endfacet
facet normal 0.0 0.0 -1.0
  outer loop
    vertex 297.0918299278948 -3.042645200808888 -9.999999999999998
    vertex 297.4828484167392 -1.8118030108468597 -9.999999999999998
    vertex 297.4828484167392 -3.029741324666458 -9.999999999999998
  endloop
endfacet
facet normal 1.0 0.0 0.0
  outer loop
    vertex 297.4828484167392 4.906135302972751 -9.999999999999998
    vertex 297.4828484167392 3.688196989153152 0.0
    vertex 297.4828484167392 3.688196989153152 -9.999999999999998
  endloop
endfacet
facet normal 1.0 0.0 0.0
  outer loop
    vertex 297.4828484167392 3.688196989153152 0.0
    vertex 297.4828484167392 4.906135302972751 -9.999999999999998
    vertex 297.4828484167392 4.906135302972751 0.0
  endloop
endfacet
facet normal -0.8490628556540927 -0.5282918389948092 -0.0
  outer loop
    vertex 293.839828707353 -0.7135921611392381 0.0
    vertex 294.39147608435235 -1.6001916931713382 -9.999999999999998
    vertex 294.39147608435235 -1.6001916931713382 0.0
  endloop
endfacet
facet normal -0.8490628556540927 -0.5282918389948092 -0.0
  outer loop
    vertex 294.39147608435235 -1.6001916931713382 -9.999999999999998
    vertex 293.839828707353 -0.7135921611392381 0.0
    vertex 293.839828707353 -0.7135921611392381 -9.999999999999998
  endloop
endfacet
facet normal -0.4711640829088152 -0.8820455810085415 -0.0
  outer loop
    vertex 296.07483578549807 -2.805798260612183 0.0
    vertex 295.1537953770695 -2.313804231388665 -9.999999999999998
    vertex 296.07483578549807 -2.805798260612183 -9.999999999999998
  endloop
endfacet
facet normal -0.4711640829088152 -0.8820455810085415 -0.0
  outer loop
    vertex 295.1537953770695 -2.313804231388665 -9.999999999999998
    vertex 296.07483578549807 -2.805798260612183 0.0
    vertex 295.1537953770695 -2.313804231388665 0.0
  endloop
endfacet
facet normal -0.95686372972313 -0.29053709357040947 -0.0
  outer loop
    vertex 293.5364471031736 0.2855740717746541 0.0
    vertex 293.839828707353 -0.7135921611392381 -9.999999999999998
    vertex 293.839828707353 -0.7135921611392381 0.0
  endloop
endfacet
facet normal -0.95686372972313 -0.29053709357040947 -0.0
  outer loop
    vertex 293.839828707353 -0.7135921611392381 -9.999999999999998
    vertex 293.5364471031736 0.2855740717746541 0.0
    vertex 293.5364471031736 0.2855740717746541 -9.999999999999998
  endloop
endfacet
facet normal -0.8820455810085409 0.47116408290881606 0.0
  outer loop
    vertex 294.2308471961974 3.2672500288227972 0.0
    vertex 293.73885316697385 2.3462096203942555 -9.999999999999998
    vertex 293.73885316697385 2.3462096203942555 0.0
  endloop
endfacet
facet normal -0.8820455810085409 0.47116408290881606 0.0
  outer loop
    vertex 293.73885316697385 2.3462096203942555 -9.999999999999998
    vertex 294.2308471961974 3.2672500288227972 0.0
    vertex 294.2308471961974 3.2672500288227972 -9.999999999999998
  endloop
endfacet
facet normal -0.2905370935704056 0.9568637297231313 0.0
  outer loop
    vertex 295.8310592664468 4.581216698539334 0.0
    vertex 296.83022549936067 4.884598302718742 -9.999999999999998
    vertex 295.8310592664468 4.581216698539334 -9.999999999999998
  endloop
endfacet
facet normal -0.2905370935704056 0.9568637297231313 0.0
  outer loop
    vertex 296.83022549936067 4.884598302718742 -9.999999999999998
    vertex 295.8310592664468 4.581216698539334 0.0
    vertex 296.83022549936067 4.884598302718742 0.0
  endloop
endfacet
facet normal -0.9994559219036102 -0.03298272535441807 -0.0
  outer loop
    vertex 293.50200622677716 1.329215477997525 0.0
    vertex 293.5364471031736 0.2855740717746541 -9.999999999999998
    vertex 293.5364471031736 0.2855740717746541 0.0
  endloop
endfacet
facet normal -0.9994559219036102 -0.03298272535441807 -0.0
  outer loop
    vertex 293.5364471031736 0.2855740717746541 -9.999999999999998
    vertex 293.50200622677716 1.329215477997525 0.0
    vertex 293.50200622677716 1.329215477997525 -9.999999999999998
  endloop
endfacet
facet normal -0.7300443686352341 0.6833997511149549 0.0
  outer loop
    vertex 294.9444597344147 4.0295693215399835 0.0
    vertex 294.2308471961974 3.2672500288227972 -9.999999999999998
    vertex 294.2308471961974 3.2672500288227972 0.0
  endloop
endfacet
facet normal -0.7300443686352341 0.6833997511149549 0.0
  outer loop
    vertex 294.2308471961974 3.2672500288227972 -9.999999999999998
    vertex 294.9444597344147 4.0295693215399835 0.0
    vertex 294.9444597344147 4.0295693215399835 -9.999999999999998
  endloop
endfacet
facet normal -0.6833997511149671 -0.7300443686352228 -0.0
  outer loop
    vertex 295.1537953770695 -2.313804231388665 0.0
    vertex 294.39147608435235 -1.6001916931713382 -9.999999999999998
    vertex 295.1537953770695 -2.313804231388665 -9.999999999999998
  endloop
endfacet
facet normal -0.6833997511149671 -0.7300443686352228 -0.0
  outer loop
    vertex 294.39147608435235 -1.6001916931713382 -9.999999999999998
    vertex 295.1537953770695 -2.313804231388665 0.0
    vertex 294.39147608435235 -1.6001916931713382 0.0
  endloop
endfacet
facet normal -0.9739368446853653 0.22681936108788175 0.0
  outer loop
    vertex 293.73885316697385 2.3462096203942555 0.0
    vertex 293.50200622677716 1.329215477997525 -9.999999999999998
    vertex 293.50200622677716 1.329215477997525 0.0
  endloop
endfacet
facet normal -0.9739368446853653 0.22681936108788175 0.0
  outer loop
    vertex 293.50200622677716 1.329215477997525 -9.999999999999998
    vertex 293.73885316697385 2.3462096203942555 0.0
    vertex 293.73885316697385 2.3462096203942555 -9.999999999999998
  endloop
endfacet
facet normal 0.38268343236508456 -0.923879532511289 0.0
  outer loop
    vertex 296.77109604270726 3.5944930114480913 0.0
    vertex 296.1078484167392 3.3197668495603576 -9.999999999999998
    vertex 296.77109604270726 3.5944930114480913 -9.999999999999998
  endloop
endfacet
facet normal 0.38268343236508456 -0.923879532511289 0.0
  outer loop
    vertex 296.1078484167392 3.3197668495603576 -9.999999999999998
    vertex 296.77109604270726 3.5944930114480913 0.0
    vertex 296.1078484167392 3.3197668495603576 0.0
  endloop
endfacet
facet normal 0.6087614290087284 0.7933533402912294 0.0
  outer loop
    vertex 295.53830476847617 -1.006346659109864 0.0
    vertex 296.1078484167392 -1.443372871254066 -9.999999999999998
    vertex 295.53830476847617 -1.006346659109864 -9.999999999999998
  endloop
endfacet
facet normal 0.6087614290087284 0.7933533402912294 0.0
  outer loop
    vertex 296.1078484167392 -1.443372871254066 -9.999999999999998
    vertex 295.53830476847617 -1.006346659109864 0.0
    vertex 296.1078484167392 -1.443372871254066 0.0
  endloop
endfacet
facet normal 0.9914448613738067 0.13052619222008002 0.0
  outer loop
    vertex 294.73284841673916 0.9381969891531465 -9.999999999999998
    vertex 294.82655239444426 0.22644461512121034 0.0
    vertex 294.82655239444426 0.22644461512121034 -9.999999999999998
  endloop
endfacet
facet normal 0.9914448613738067 0.13052619222008002 0.0
  outer loop
    vertex 294.82655239444426 0.22644461512121034 0.0
    vertex 294.73284841673916 0.9381969891531465 -9.999999999999998
    vertex 294.73284841673916 0.9381969891531465 0.0
  endloop
endfacet
facet normal 0.0 0.0 1.0
  outer loop
    vertex 295.1537953770695 -2.313804231388665 0.0
    vertex 294.73284841673916 0.9381969891531465 0.0
    vertex 294.39147608435235 -1.6001916931713382 0.0
  endloop
endfacet
facet normal 0.0 0.0 1.0
  outer loop
    vertex 294.73284841673916 0.9381969891531465 0.0
    vertex 295.1537953770695 -2.313804231388665 0.0
    vertex 294.82655239444426 0.22644461512121034 0.0
  endloop
endfacet
facet normal 0.0 0.0 1.0
  outer loop
    vertex 294.82655239444426 0.22644461512121034 0.0
    vertex 295.1537953770695 -2.313804231388665 0.0
    vertex 295.101278556332 -0.436803010846858 0.0
  endloop
endfacet
facet normal 0.0 0.0 1.0
  outer loop
    vertex 295.101278556332 -0.436803010846858 0.0
    vertex 295.1537953770695 -2.313804231388665 0.0
    vertex 295.53830476847617 -1.006346659109864 0.0
  endloop
endfacet
facet normal 0.0 0.0 1.0
  outer loop
    vertex 295.53830476847617 -1.006346659109864 0.0
    vertex 295.1537953770695 -2.313804231388665 0.0
    vertex 296.07483578549807 -2.805798260612183 0.0
  endloop
endfacet
facet normal 0.0 0.0 1.0
  outer loop
    vertex 295.53830476847617 -1.006346659109864 0.0
    vertex 296.07483578549807 -2.805798260612183 0.0
    vertex 296.1078484167392 -1.443372871254066 0.0
  endloop
endfacet
facet normal 0.0 0.0 1.0
  outer loop
    vertex 296.1078484167392 -1.443372871254066 0.0
    vertex 296.07483578549807 -2.805798260612183 0.0
    vertex 297.0918299278948 -3.042645200808888 0.0
  endloop
endfacet
facet normal 0.0 0.0 1.0
  outer loop
    vertex 296.1078484167392 -1.443372871254066 0.0
    vertex 297.0918299278948 -3.042645200808888 0.0
    vertex 296.77109604270726 -1.7180990331417973 0.0
  endloop
endfacet
facet normal 0.0 0.0 1.0
  outer loop
    vertex 296.77109604270726 -1.7180990331417973 0.0
    vertex 297.0918299278948 -3.042645200808888 0.0
    vertex 297.4828484167392 -1.8118030108468597 0.0
  endloop
endfacet
facet normal 0.0 0.0 1.0
  outer loop
    vertex 297.4828484167392 -1.8118030108468597 0.0
    vertex 297.0918299278948 -3.042645200808888 0.0
    vertex 297.4828484167392 -3.029741324666458 0.0
  endloop
endfacet
facet normal 0.0 0.0 1.0
  outer loop
    vertex 293.5364471031736 0.2855740717746541 0.0
    vertex 293.73885316697385 2.3462096203942555 0.0
    vertex 293.50200622677716 1.329215477997525 0.0
  endloop
endfacet
facet normal 0.0 0.0 1.0
  outer loop
    vertex 293.73885316697385 2.3462096203942555 0.0
    vertex 293.5364471031736 0.2855740717746541 0.0
    vertex 293.839828707353 -0.7135921611392381 0.0
  endloop
endfacet
facet normal 0.0 0.0 1.0
  outer loop
    vertex 293.73885316697385 2.3462096203942555 0.0
    vertex 293.839828707353 -0.7135921611392381 0.0
    vertex 294.2308471961974 3.2672500288227972 0.0
  endloop
endfacet
facet normal 0.0 0.0 1.0
  outer loop
    vertex 294.2308471961974 3.2672500288227972 0.0
    vertex 293.839828707353 -0.7135921611392381 0.0
    vertex 294.39147608435235 -1.6001916931713382 0.0
  endloop
endfacet
facet normal 0.0 0.0 1.0
  outer loop
    vertex 294.2308471961974 3.2672500288227972 0.0
    vertex 294.39147608435235 -1.6001916931713382 0.0
    vertex 294.9444597344147 4.0295693215399835 0.0
  endloop
endfacet
facet normal 0.0 0.0 1.0
  outer loop
    vertex 294.9444597344147 4.0295693215399835 0.0
    vertex 294.39147608435235 -1.6001916931713382 0.0
    vertex 294.73284841673916 0.9381969891531465 0.0
  endloop
endfacet
facet normal 0.0 0.0 1.0
  outer loop
    vertex 294.9444597344147 4.0295693215399835 0.0
    vertex 294.73284841673916 0.9381969891531465 0.0
    vertex 294.82655239444426 1.64994936318508 0.0
  endloop
endfacet
facet normal 0.0 0.0 1.0
  outer loop
    vertex 294.9444597344147 4.0295693215399835 0.0
    vertex 294.82655239444426 1.64994936318508 0.0
    vertex 295.101278556332 2.3131969891531496 0.0
  endloop
endfacet
facet normal 0.0 0.0 1.0
  outer loop
    vertex 294.9444597344147 4.0295693215399835 0.0
    vertex 295.101278556332 2.3131969891531496 0.0
    vertex 295.8310592664468 4.581216698539334 0.0
  endloop
endfacet
facet normal 0.0 0.0 1.0
  outer loop
    vertex 295.8310592664468 4.581216698539334 0.0
    vertex 295.101278556332 2.3131969891531496 0.0
    vertex 295.53830476847617 2.8827406374161573 0.0
  endloop
endfacet
facet normal 0.0 0.0 1.0
  outer loop
    vertex 295.8310592664468 4.581216698539334 0.0
    vertex 295.53830476847617 2.8827406374161573 0.0
    vertex 296.1078484167392 3.3197668495603576 0.0
  endloop
endfacet
facet normal 0.0 0.0 1.0
  outer loop
    vertex 295.8310592664468 4.581216698539334 0.0
    vertex 296.1078484167392 3.3197668495603576 0.0
    vertex 296.83022549936067 4.884598302718742 0.0
  endloop
endfacet
facet normal 0.0 0.0 1.0
  outer loop
    vertex 296.83022549936067 4.884598302718742 0.0
    vertex 296.1078484167392 3.3197668495603576 0.0
    vertex 296.77109604270726 3.5944930114480913 0.0
  endloop
endfacet
facet normal 0.0 0.0 1.0
  outer loop
    vertex 296.83022549936067 4.884598302718742 0.0
    vertex 296.77109604270726 3.5944930114480913 0.0
    vertex 297.4828484167392 3.688196989153152 0.0
  endloop
endfacet
facet normal 0.0 0.0 1.0
  outer loop
    vertex 296.83022549936067 4.884598302718742 0.0
    vertex 297.4828484167392 3.688196989153152 0.0
    vertex 297.4828484167392 4.906135302972751 0.0
  endloop
endfacet
facet normal 0.793353340291233 0.6087614290087235 0.0
  outer loop
    vertex 295.101278556332 -0.436803010846858 -9.999999999999998
    vertex 295.53830476847617 -1.006346659109864 0.0
    vertex 295.53830476847617 -1.006346659109864 -9.999999999999998
  endloop
endfacet
facet normal 0.793353340291233 0.6087614290087235 0.0
  outer loop
    vertex 295.53830476847617 -1.006346659109864 0.0
    vertex 295.101278556332 -0.436803010846858 -9.999999999999998
    vertex 295.101278556332 -0.436803010846858 0.0
  endloop
endfacet
facet normal 0.9238795325112931 -0.3826834323650745 0.0
  outer loop
    vertex 295.101278556332 2.3131969891531496 -9.999999999999998
    vertex 294.82655239444426 1.64994936318508 0.0
    vertex 294.82655239444426 1.64994936318508 -9.999999999999998
  endloop
endfacet
facet normal 0.9238795325112931 -0.3826834323650745 0.0
  outer loop
    vertex 294.82655239444426 1.64994936318508 0.0
    vertex 295.101278556332 2.3131969891531496 -9.999999999999998
    vertex 295.101278556332 2.3131969891531496 0.0
  endloop
endfacet
facet normal 0.9238795325112928 0.38268343236507496 0.0
  outer loop
    vertex 294.82655239444426 0.22644461512121034 -9.999999999999998
    vertex 295.101278556332 -0.436803010846858 0.0
    vertex 295.101278556332 -0.436803010846858 -9.999999999999998
  endloop
endfacet
facet normal 0.9238795325112928 0.38268343236507496 0.0
  outer loop
    vertex 295.101278556332 -0.436803010846858 0.0
    vertex 294.82655239444426 0.22644461512121034 -9.999999999999998
    vertex 294.82655239444426 0.22644461512121034 0.0
  endloop
endfacet
facet normal -0.03298272535444014 0.9994559219036093 0.0
  outer loop
    vertex 296.83022549936067 4.884598302718742 0.0
    vertex 297.4828484167392 4.906135302972751 -9.999999999999998
    vertex 296.83022549936067 4.884598302718742 -9.999999999999998
  endloop
endfacet
facet normal -0.03298272535444014 0.9994559219036093 0.0
  outer loop
    vertex 297.4828484167392 4.906135302972751 -9.999999999999998
    vertex 296.83022549936067 4.884598302718742 0.0
    vertex 297.4828484167392 4.906135302972751 0.0
  endloop
endfacet
facet normal 0.3826834323650842 0.9238795325112891 0.0
  outer loop
    vertex 296.1078484167392 -1.443372871254066 0.0
    vertex 296.77109604270726 -1.7180990331417973 -9.999999999999998
    vertex 296.1078484167392 -1.443372871254066 -9.999999999999998
  endloop
endfacet
facet normal 0.3826834323650842 0.9238795325112891 0.0
  outer loop
    vertex 296.77109604270726 -1.7180990331417973 -9.999999999999998
    vertex 296.1078484167392 -1.443372871254066 0.0
    vertex 296.77109604270726 -1.7180990331417973 0.0
  endloop
endfacet
facet normal 0.1305261922200533 -0.9914448613738102 0.0
  outer loop
    vertex 297.4828484167392 3.688196989153152 0.0
    vertex 296.77109604270726 3.5944930114480913 -9.999999999999998
    vertex 297.4828484167392 3.688196989153152 -9.999999999999998
  endloop
endfacet
facet normal 0.1305261922200533 -0.9914448613738102 0.0
  outer loop
    vertex 296.77109604270726 3.5944930114480913 -9.999999999999998
    vertex 297.4828484167392 3.688196989153152 0.0
    vertex 296.77109604270726 3.5944930114480913 0.0
  endloop
endfacet
facet normal 0.13052619222005282 0.9914448613738104 0.0
  outer loop
    vertex 296.77109604270726 -1.7180990331417973 0.0
    vertex 297.4828484167392 -1.8118030108468597 -9.999999999999998
    vertex 296.77109604270726 -1.7180990331417973 -9.999999999999998
  endloop
endfacet
facet normal 0.13052619222005282 0.9914448613738104 0.0
  outer loop
    vertex 297.4828484167392 -1.8118030108468597 -9.999999999999998
    vertex 296.77109604270726 -1.7180990331417973 0.0
    vertex 297.4828484167392 -1.8118030108468597 0.0
  endloop
endfacet
facet normal 0.9914448613738067 -0.1305261922200804 0.0
  outer loop
    vertex 294.82655239444426 1.64994936318508 -9.999999999999998
    vertex 294.73284841673916 0.9381969891531465 0.0
    vertex 294.73284841673916 0.9381969891531465 -9.999999999999998
  endloop
endfacet
facet normal 0.9914448613738067 -0.1305261922200804 0.0
  outer loop
    vertex 294.73284841673916 0.9381969891531465 0.0
    vertex 294.82655239444426 1.64994936318508 -9.999999999999998
    vertex 294.82655239444426 1.64994936318508 0.0
  endloop
endfacet
facet normal -0.528291838994807 0.849062855654094 0.0
  outer loop
    vertex 294.9444597344147 4.0295693215399835 0.0
    vertex 295.8310592664468 4.581216698539334 -9.999999999999998
    vertex 294.9444597344147 4.0295693215399835 -9.999999999999998
  endloop
endfacet
facet normal -0.528291838994807 0.849062855654094 0.0
  outer loop
    vertex 295.8310592664468 4.581216698539334 -9.999999999999998
    vertex 294.9444597344147 4.0295693215399835 0.0
    vertex 295.8310592664468 4.581216698539334 0.0
  endloop
endfacet
facet normal 0.7933533402912334 -0.6087614290087229 0.0
  outer loop
    vertex 295.53830476847617 2.8827406374161573 -9.999999999999998
    vertex 295.101278556332 2.3131969891531496 0.0
    vertex 295.101278556332 2.3131969891531496 -9.999999999999998
  endloop
endfacet
facet normal 0.7933533402912334 -0.6087614290087229 0.0
  outer loop
    vertex 295.101278556332 2.3131969891531496 0.0
    vertex 295.53830476847617 2.8827406374161573 -9.999999999999998
    vertex 295.53830476847617 2.8827406374161573 0.0
  endloop
endfacet
facet normal 0.6087614290087281 -0.7933533402912295 0.0
  outer loop
    vertex 296.1078484167392 3.3197668495603576 0.0
    vertex 295.53830476847617 2.8827406374161573 -9.999999999999998
    vertex 296.1078484167392 3.3197668495603576 -9.999999999999998
  endloop
endfacet
facet normal 0.6087614290087281 -0.7933533402912295 0.0
  outer loop
    vertex 295.53830476847617 2.8827406374161573 -9.999999999999998
    vertex 296.1078484167392 3.3197668495603576 0.0
    vertex 295.53830476847617 2.8827406374161573 0.0
  endloop
endfacet
endsolid mfdbuttons2.6
