solid mfdbuttons2.6
facet normal 0.0 0.0 1.0
  outer loop
    vertex 235.00000000000003 13.499999999999998 -2.7862144532125446
    vertex 231.72141634768286 15.000000000000004 -2.7862144532125446
    vertex 231.72141634768286 13.499720971604056 -2.7862144532125446
  endloop
endfacet
facet normal 0.0 0.0 1.0
  outer loop
    vertex 231.72141634768286 15.000000000000004 -2.7862144532125446
    vertex 235.00000000000003 13.499999999999998 -2.7862144532125446
    vertex 235.00000000000003 15.000000000000004 -2.7862144532125446
  endloop
endfacet
facet normal 0.0 0.0 1.0
  outer loop
    vertex 235.00000000000003 0.0 -2.7862144532125446
    vertex -4.511946372076636e-14 1.5000000000000007 -2.7862144532125446
    vertex -4.511946372076636e-14 0.0 -2.7862144532125446
  endloop
endfacet
facet normal 0.0 0.0 1.0
  outer loop
    vertex -4.511946372076636e-14 1.5000000000000007 -2.7862144532125446
    vertex 235.00000000000003 0.0 -2.7862144532125446
    vertex 235.00000000000003 1.5000000000000022 -2.7862144532125446
  endloop
endfacet
facet normal 0.0 0.0 1.0
  outer loop
    vertex -1.6000000000000423 -1.6000000000000005 -0.7862144532125452
    vertex -4.511946372076636e-14 0.0 -0.7862144532125452
    vertex -1.6000000000000423 15.000000000000004 -0.7862144532125452
  endloop
endfacet
facet normal 0.0 0.0 1.0
  outer loop
    vertex -4.511946372076636e-14 0.0 -0.7862144532125452
    vertex -1.6000000000000423 -1.6000000000000005 -0.7862144532125452
    vertex 236.50000000000009 -1.6000000000000005 -0.7862144532125452
  endloop
endfacet
facet normal 0.0 0.0 1.0
  outer loop
    vertex -4.511946372076636e-14 0.0 -0.7862144532125452
    vertex 236.50000000000009 -1.6000000000000005 -0.7862144532125452
    vertex 235.00000000000003 0.0 -0.7862144532125452
  endloop
endfacet
facet normal 0.0 0.0 1.0
  outer loop
    vertex 235.00000000000003 0.0 -0.7862144532125452
    vertex 236.50000000000009 -1.6000000000000005 -0.7862144532125452
    vertex 235.00000000000003 15.000000000000004 -0.7862144532125452
  endloop
endfacet
facet normal 0.0 0.0 1.0
  outer loop
    vertex 235.00000000000003 15.000000000000004 -0.7862144532125452
    vertex 236.50000000000009 -1.6000000000000005 -0.7862144532125452
    vertex 236.50000000000009 15.000000000000004 -0.7862144532125452
  endloop
endfacet
facet normal 0.0 0.0 1.0
  outer loop
    vertex -4.511946372076636e-14 15.000000000000004 -0.7862144532125452
    vertex -1.6000000000000423 15.000000000000004 -0.7862144532125452
    vertex -4.511946372076636e-14 0.0 -0.7862144532125452
  endloop
endfacet
facet normal 0.0 1.0 0.0
  outer loop
    vertex -4.511946372076636e-14 0.0 -0.7862144532125452
    vertex 235.00000000000003 0.0 -2.7862144532125446
    vertex -4.511946372076636e-14 0.0 -2.7862144532125446
  endloop
endfacet
facet normal 0.0 1.0 0.0
  outer loop
    vertex 235.00000000000003 0.0 -2.7862144532125446
    vertex -4.511946372076636e-14 0.0 -0.7862144532125452
    vertex 235.00000000000003 0.0 -0.7862144532125452
  endloop
endfacet
facet normal 0.0 1.0 0.0
  outer loop
    vertex -1.6000000000000423 15.000000000000004 -20.28520402267938
    vertex 3.2189155933135454 15.000000000000007 -3.036214453212544
    vertex 236.50000000000009 15.000000000000004 -20.28520402267938
  endloop
endfacet
facet normal 0.0 1.0 0.0
  outer loop
    vertex 3.2189155933135454 15.000000000000007 -3.036214453212544
    vertex -1.6000000000000423 15.000000000000004 -20.28520402267938
    vertex -4.511946372076636e-14 15.000000000000004 -2.7862144532125446
  endloop
endfacet
facet normal 0.0 1.0 0.0
  outer loop
    vertex -4.511946372076636e-14 15.000000000000004 -2.7862144532125446
    vertex -1.6000000000000423 15.000000000000004 -20.28520402267938
    vertex -1.6000000000000423 15.000000000000004 -0.7862144532125452
  endloop
endfacet
facet normal 0.0 1.0 0.0
  outer loop
    vertex -4.511946372076636e-14 15.000000000000004 -2.7862144532125446
    vertex -1.6000000000000423 15.000000000000004 -0.7862144532125452
    vertex -4.511946372076636e-14 15.000000000000004 -0.7862144532125452
  endloop
endfacet
facet normal 0.0 1.0 0.0
  outer loop
    vertex 3.2189155933135454 15.000000000000007 -2.7862144532125446
    vertex 3.2189155933135454 15.000000000000007 -3.036214453212544
    vertex -4.511946372076636e-14 15.000000000000004 -2.7862144532125446
  endloop
endfacet
facet normal 0.0 1.0 0.0
  outer loop
    vertex 9.28507037407404 15.000000000000004 -2.7862144532125446
    vertex 114.51420008247254 15.000000000000004 -3.036214453212544
    vertex 9.28507037407404 15.000000000000004 -3.036214453212544
  endloop
endfacet
facet normal 0.0 1.0 0.0
  outer loop
    vertex 114.51420008247254 15.000000000000004 -3.036214453212544
    vertex 9.28507037407404 15.000000000000004 -2.7862144532125446
    vertex 114.51420008247254 15.000000000000004 -2.7862144532125446
  endloop
endfacet
facet normal 0.0 1.0 0.0
  outer loop
    vertex 120.47987914745511 15.000000000000004 -2.7862144532125446
    vertex 225.72739791056227 15.000000000000004 -3.036214453212544
    vertex 120.47987914745511 15.000000000000004 -3.036214453212544
  endloop
endfacet
facet normal 0.0 1.0 0.0
  outer loop
    vertex 225.72739791056227 15.000000000000004 -3.036214453212544
    vertex 120.47987914745511 15.000000000000004 -2.7862144532125446
    vertex 225.72739791056227 15.000000000000004 -2.7862144532125446
  endloop
endfacet
facet normal 0.0 1.0 0.0
  outer loop
    vertex 236.50000000000009 15.000000000000004 -20.28520402267938
    vertex 235.00000000000003 15.000000000000004 -2.7862144532125446
    vertex 236.50000000000009 15.000000000000004 -0.7862144532125452
  endloop
endfacet
facet normal 0.0 1.0 0.0
  outer loop
    vertex 235.00000000000003 15.000000000000004 -2.7862144532125446
    vertex 236.50000000000009 15.000000000000004 -20.28520402267938
    vertex 231.72141634768286 15.000000000000004 -3.036214453212544
  endloop
endfacet
facet normal 0.0 1.0 0.0
  outer loop
    vertex 231.72141634768286 15.000000000000004 -3.036214453212544
    vertex 236.50000000000009 15.000000000000004 -20.28520402267938
    vertex 3.2189155933135454 15.000000000000007 -3.036214453212544
  endloop
endfacet
facet normal 0.0 1.0 0.0
  outer loop
    vertex 231.72141634768286 15.000000000000004 -3.036214453212544
    vertex 3.2189155933135454 15.000000000000007 -3.036214453212544
    vertex 9.28507037407404 15.000000000000004 -3.036214453212544
  endloop
endfacet
facet normal 0.0 1.0 0.0
  outer loop
    vertex 231.72141634768286 15.000000000000004 -3.036214453212544
    vertex 9.28507037407404 15.000000000000004 -3.036214453212544
    vertex 114.51420008247254 15.000000000000004 -3.036214453212544
  endloop
endfacet
facet normal 0.0 1.0 0.0
  outer loop
    vertex 231.72141634768286 15.000000000000004 -3.036214453212544
    vertex 114.51420008247254 15.000000000000004 -3.036214453212544
    vertex 120.47987914745511 15.000000000000004 -3.036214453212544
  endloop
endfacet
facet normal 0.0 1.0 0.0
  outer loop
    vertex 231.72141634768286 15.000000000000004 -3.036214453212544
    vertex 120.47987914745511 15.000000000000004 -3.036214453212544
    vertex 225.72739791056227 15.000000000000004 -3.036214453212544
  endloop
endfacet
facet normal 0.0 1.0 0.0
  outer loop
    vertex 235.00000000000003 15.000000000000004 -2.7862144532125446
    vertex 231.72141634768286 15.000000000000004 -3.036214453212544
    vertex 231.72141634768286 15.000000000000004 -2.7862144532125446
  endloop
endfacet
facet normal 0.0 1.0 0.0
  outer loop
    vertex 236.50000000000009 15.000000000000004 -0.7862144532125452
    vertex 235.00000000000003 15.000000000000004 -2.7862144532125446
    vertex 235.00000000000003 15.000000000000004 -0.7862144532125452
  endloop
endfacet
facet normal -1.1312020316787746e-18 0.8721641636031036 -0.48921331924478384
  outer loop
    vertex -4.511946372076636e-14 1.5000000000000007 -2.7862144532125446
    vertex 235.00000000000003 -4.949999999999999 -14.28520402267938
    vertex -4.511946372076636e-14 -4.949999999999999 -14.28520402267938
  endloop
endfacet
facet normal -1.1312020316787746e-18 0.8721641636031036 -0.48921331924478384
  outer loop
    vertex 235.00000000000003 -4.949999999999999 -14.28520402267938
    vertex -4.511946372076636e-14 1.5000000000000007 -2.7862144532125446
    vertex 235.00000000000003 1.5000000000000022 -2.7862144532125446
  endloop
endfacet
facet normal 1.0 -3.5105389115803e-17 1.29295852825671e-15
  outer loop
    vertex 0.0 3.9022506681337155 -18.936833641267494
    vertex -4.511946372076636e-14 1.5000000000000007 -2.7862144532125446
    vertex -4.511946372076636e-14 -4.949999999999999 -14.28520402267938
  endloop
endfacet
facet normal 1.0 -3.5105389115803e-17 1.29295852825671e-15
  outer loop
    vertex -4.511946372076636e-14 13.500000000000004 -14.28520402267938
    vertex -4.511946372076636e-14 13.480000000000006 -2.7862144532125446
    vertex 0.0 3.9022506681337155 -18.936833641267494
  endloop
endfacet
facet normal 1.0 -3.5105389115803e-17 1.29295852825671e-15
  outer loop
    vertex -4.511946372076636e-14 1.5000000000000007 -2.7862144532125446
    vertex -4.511946372076636e-14 0.0 -0.7862144532125452
    vertex -4.511946372076636e-14 0.0 -2.7862144532125446
  endloop
endfacet
facet normal 1.0 -3.5105389115803e-17 1.29295852825671e-15
  outer loop
    vertex -4.511946372076636e-14 0.0 -0.7862144532125452
    vertex -4.511946372076636e-14 1.5000000000000007 -2.7862144532125446
    vertex -4.511946372076636e-14 15.000000000000004 -0.7862144532125452
  endloop
endfacet
facet normal 1.0 -3.5105389115803e-17 1.29295852825671e-15
  outer loop
    vertex -4.511946372076636e-14 15.000000000000004 -0.7862144532125452
    vertex -4.511946372076636e-14 1.5000000000000007 -2.7862144532125446
    vertex -4.511946372076636e-14 13.480000000000006 -2.7862144532125446
  endloop
endfacet
facet normal 1.0 -3.5105389115803e-17 1.29295852825671e-15
  outer loop
    vertex -4.511946372076636e-14 13.480000000000006 -2.7862144532125446
    vertex -4.511946372076636e-14 1.5000000000000007 -2.7862144532125446
    vertex 0.0 3.9022506681337155 -18.936833641267494
  endloop
endfacet
facet normal 1.0 -3.5105389115803e-17 1.29295852825671e-15
  outer loop
    vertex -4.511946372076636e-14 15.000000000000004 -0.7862144532125452
    vertex -4.511946372076636e-14 13.480000000000006 -2.7862144532125446
    vertex -4.511946372076636e-14 15.000000000000004 -2.7862144532125446
  endloop
endfacet
facet normal -1.0 0.0 0.0
  outer loop
    vertex 235.00000000000003 13.500000000000004 -14.28520402267938
    vertex 235.00000000000003 3.9022506681337155 -18.936833641267494
    vertex 235.00000000000003 13.499999999999998 -2.7862144532125446
  endloop
endfacet
facet normal -1.0 0.0 0.0
  outer loop
    vertex 235.00000000000003 15.000000000000004 -0.7862144532125452
    vertex 235.00000000000003 0.0 -2.7862144532125446
    vertex 235.00000000000003 0.0 -0.7862144532125452
  endloop
endfacet
facet normal -1.0 0.0 0.0
  outer loop
    vertex 235.00000000000003 0.0 -2.7862144532125446
    vertex 235.00000000000003 15.000000000000004 -0.7862144532125452
    vertex 235.00000000000003 1.5000000000000022 -2.7862144532125446
  endloop
endfacet
facet normal -1.0 0.0 0.0
  outer loop
    vertex 235.00000000000003 1.5000000000000022 -2.7862144532125446
    vertex 235.00000000000003 15.000000000000004 -0.7862144532125452
    vertex 235.00000000000003 13.499999999999998 -2.7862144532125446
  endloop
endfacet
facet normal -1.0 0.0 0.0
  outer loop
    vertex 235.00000000000003 1.5000000000000022 -2.7862144532125446
    vertex 235.00000000000003 13.499999999999998 -2.7862144532125446
    vertex 235.00000000000003 3.9022506681337155 -18.936833641267494
  endloop
endfacet
facet normal -1.0 0.0 0.0
  outer loop
    vertex 235.00000000000003 13.499999999999998 -2.7862144532125446
    vertex 235.00000000000003 15.000000000000004 -0.7862144532125452
    vertex 235.00000000000003 15.000000000000004 -2.7862144532125446
  endloop
endfacet
facet normal -1.0 0.0 0.0
  outer loop
    vertex 235.00000000000003 3.9022506681337155 -18.936833641267494
    vertex 235.00000000000003 -4.949999999999999 -14.28520402267938
    vertex 235.00000000000003 1.5000000000000022 -2.7862144532125446
  endloop
endfacet
facet normal 1.0 0.0 0.0
  outer loop
    vertex 236.50000000000009 15.000000000000004 -20.28520402267938
    vertex 236.50000000000009 -6.449999999999998 -7.786214453212547
    vertex 236.50000000000009 -6.449999999999998 -20.28520402267938
  endloop
endfacet
facet normal 1.0 0.0 0.0
  outer loop
    vertex 236.50000000000009 -6.449999999999998 -7.786214453212547
    vertex 236.50000000000009 15.000000000000004 -20.28520402267938
    vertex 236.50000000000009 -1.6000000000000005 -2.7862144532125446
  endloop
endfacet
facet normal 1.0 0.0 0.0
  outer loop
    vertex 236.50000000000009 -1.6000000000000005 -2.7862144532125446
    vertex 236.50000000000009 15.000000000000004 -20.28520402267938
    vertex 236.50000000000009 -1.6000000000000005 -0.7862144532125452
  endloop
endfacet
facet normal 1.0 0.0 0.0
  outer loop
    vertex 236.50000000000009 -1.6000000000000005 -0.7862144532125452
    vertex 236.50000000000009 15.000000000000004 -20.28520402267938
    vertex 236.50000000000009 15.000000000000004 -0.7862144532125452
  endloop
endfacet
facet normal 0.0 -0.7177916798535344 0.6962579294579281
  outer loop
    vertex 236.50000000000009 -1.6000000000000005 -2.7862144532125446
    vertex -1.6000000000000423 -6.449999999999998 -7.786214453212547
    vertex 236.50000000000009 -6.449999999999998 -7.786214453212547
  endloop
endfacet
facet normal 0.0 -0.7177916798535344 0.6962579294579281
  outer loop
    vertex -1.6000000000000423 -6.449999999999998 -7.786214453212547
    vertex 236.50000000000009 -1.6000000000000005 -2.7862144532125446
    vertex -1.6000000000000423 -1.6000000000000005 -2.7862144532125446
  endloop
endfacet
facet normal -1.0 0.0 0.0
  outer loop
    vertex -1.6000000000000423 15.000000000000004 -0.7862144532125452
    vertex -1.6000000000000423 -1.6000000000000005 -2.7862144532125446
    vertex -1.6000000000000423 -1.6000000000000005 -0.7862144532125452
  endloop
endfacet
facet normal -1.0 0.0 0.0
  outer loop
    vertex -1.6000000000000423 -1.6000000000000005 -2.7862144532125446
    vertex -1.6000000000000423 -6.449999999999998 -20.28520402267938
    vertex -1.6000000000000423 -6.449999999999998 -7.786214453212547
  endloop
endfacet
facet normal -1.0 0.0 0.0
  outer loop
    vertex -1.6000000000000423 -6.449999999999998 -20.28520402267938
    vertex -1.6000000000000423 -1.6000000000000005 -2.7862144532125446
    vertex -1.6000000000000423 15.000000000000004 -20.28520402267938
  endloop
endfacet
facet normal -1.0 0.0 0.0
  outer loop
    vertex -1.6000000000000423 15.000000000000004 -20.28520402267938
    vertex -1.6000000000000423 -1.6000000000000005 -2.7862144532125446
    vertex -1.6000000000000423 15.000000000000004 -0.7862144532125452
  endloop
endfacet
facet normal 0.0 -1.0 0.0
  outer loop
    vertex 236.50000000000009 -1.6000000000000005 -0.7862144532125452
    vertex -1.6000000000000423 -1.6000000000000005 -2.7862144532125446
    vertex 236.50000000000009 -1.6000000000000005 -2.7862144532125446
  endloop
endfacet
facet normal 0.0 -1.0 0.0
  outer loop
    vertex -1.6000000000000423 -1.6000000000000005 -2.7862144532125446
    vertex 236.50000000000009 -1.6000000000000005 -0.7862144532125452
    vertex -1.6000000000000423 -1.6000000000000005 -0.7862144532125452
  endloop
endfacet
facet normal 0.0 -1.0 0.0
  outer loop
    vertex 236.50000000000009 -6.449999999999998 -7.786214453212547
    vertex -1.6000000000000423 -6.449999999999998 -20.28520402267938
    vertex 236.50000000000009 -6.449999999999998 -20.28520402267938
  endloop
endfacet
facet normal 0.0 -1.0 0.0
  outer loop
    vertex -1.6000000000000423 -6.449999999999998 -20.28520402267938
    vertex 236.50000000000009 -6.449999999999998 -7.786214453212547
    vertex -1.6000000000000423 -6.449999999999998 -7.786214453212547
  endloop
endfacet
facet normal -4.0377393261672e-19 -0.43613498859666655 0.8998812542340159
  outer loop
    vertex 0.0 3.9022506681337155 -18.936833641267494
    vertex 224.24835192992003 7.830394030866081 -17.033026052598878
    vertex 224.17517956223134 8.741142657285405 -16.591624101031467
  endloop
endfacet
facet normal -4.0377393261672e-19 -0.43613498859666655 0.8998812542340159
  outer loop
    vertex 224.24835192992003 7.830394030866081 -17.033026052598878
    vertex 0.0 3.9022506681337155 -18.936833641267494
    vertex 224.55475009945957 6.96961681368344 -17.450208942045528
  endloop
endfacet
facet normal -4.0377393261672e-19 -0.43613498859666655 0.8998812542340159
  outer loop
    vertex 224.55475009945957 6.96961681368344 -17.450208942045528
    vertex 0.0 3.9022506681337155 -18.936833641267494
    vertex 225.0734935419427 6.2174715505868825 -17.814742444882953
  endloop
endfacet
facet normal -4.0377393261672e-19 -0.43613498859666655 0.8998812542340159
  outer loop
    vertex 225.0734935419427 6.2174715505868825 -17.814742444882953
    vertex 0.0 3.9022506681337155 -18.936833641267494
    vertex 225.76923074902822 5.625215698277597 -18.101784205312875
  endloop
endfacet
facet normal -4.0377393261672e-19 -0.43613498859666655 0.8998812542340159
  outer loop
    vertex 225.76923074902822 5.625215698277597 -18.101784205312875
    vertex 0.0 3.9022506681337155 -18.936833641267494
    vertex 226.5945483798135 5.233210514341361 -18.29177280172095
  endloop
endfacet
facet normal -4.0377393261672e-19 -0.43613498859666655 0.8998812542340159
  outer loop
    vertex 226.5945483798135 5.233210514341361 -18.29177280172095
    vertex 0.0 3.9022506681337155 -18.936833641267494
    vertex 227.49320240166233 5.068170504244314 -18.371760825232943
  endloop
endfacet
facet normal -4.0377393261672e-19 -0.43613498859666655 0.8998812542340159
  outer loop
    vertex 227.49320240166233 5.068170504244314 -18.371760825232943
    vertex 0.0 3.9022506681337155 -18.936833641267494
    vertex 235.00000000000003 3.9022506681337155 -18.936833641267494
  endloop
endfacet
facet normal -4.0377393261672e-19 -0.43613498859666655 0.8998812542340159
  outer loop
    vertex 227.49320240166233 5.068170504244314 -18.371760825232943
    vertex 235.00000000000003 3.9022506681337155 -18.936833641267494
    vertex 228.40395102808156 5.14134287193298 -18.336297224232993
  endloop
endfacet
facet normal -4.0377393261672e-19 -0.43613498859666655 0.8998812542340159
  outer loop
    vertex 228.40395102808156 5.14134287193298 -18.336297224232993
    vertex 235.00000000000003 3.9022506681337155 -18.936833641267494
    vertex 229.26472824526422 5.447741041472477 -18.187798784522858
  endloop
endfacet
facet normal -4.0377393261672e-19 -0.43613498859666655 0.8998812542340159
  outer loop
    vertex 229.26472824526422 5.447741041472477 -18.187798784522858
    vertex 235.00000000000003 3.9022506681337155 -18.936833641267494
    vertex 230.01687350836073 5.96648448395558 -17.936385429363526
  endloop
endfacet
facet normal -4.0377393261672e-19 -0.43613498859666655 0.8998812542340159
  outer loop
    vertex 230.01687350836073 5.96648448395558 -17.936385429363526
    vertex 235.00000000000003 3.9022506681337155 -18.936833641267494
    vertex 230.6091293606701 6.66222169104116 -17.599190563428873
  endloop
endfacet
facet normal -4.0377393261672e-19 -0.43613498859666655 0.8998812542340159
  outer loop
    vertex 230.6091293606701 6.66222169104116 -17.599190563428873
    vertex 235.00000000000003 3.9022506681337155 -18.936833641267494
    vertex 231.00113454460626 7.487539321826409 -17.199193459591495
  endloop
endfacet
facet normal -4.0377393261672e-19 -0.43613498859666655 0.8998812542340159
  outer loop
    vertex 231.00113454460626 7.487539321826409 -17.199193459591495
    vertex 235.00000000000003 3.9022506681337155 -18.936833641267494
    vertex 231.16617455470336 8.386193343675194 -16.76365325945144
  endloop
endfacet
facet normal -4.0377393261672e-19 -0.43613498859666655 0.8998812542340159
  outer loop
    vertex 0.0 3.9022506681337155 -18.936833641267494
    vertex 235.00000000000003 13.500000000000004 -14.28520402267938
    vertex -4.511946372076636e-14 13.500000000000004 -14.28520402267938
  endloop
endfacet
facet normal -4.0377393261672e-19 -0.43613498859666655 0.8998812542340159
  outer loop
    vertex 235.00000000000003 13.500000000000004 -14.28520402267938
    vertex 0.0 3.9022506681337155 -18.936833641267494
    vertex 226.93740308885324 11.9859931290276 -15.018980136249928
  endloop
endfacet
facet normal -4.0377393261672e-19 -0.43613498859666655 0.8998812542340159
  outer loop
    vertex 226.93740308885324 11.9859931290276 -15.018980136249928
    vertex 0.0 3.9022506681337155 -18.936833641267494
    vertex 226.07662587167053 11.6795949594881 -15.167478575960057
  endloop
endfacet
facet normal -4.0377393261672e-19 -0.43613498859666655 0.8998812542340159
  outer loop
    vertex 226.07662587167053 11.6795949594881 -15.167478575960057
    vertex 0.0 3.9022506681337155 -18.936833641267494
    vertex 225.32448060857396 11.160851517004993 -15.418891931119395
  endloop
endfacet
facet normal -4.0377393261672e-19 -0.43613498859666655 0.8998812542340159
  outer loop
    vertex 225.32448060857396 11.160851517004993 -15.418891931119395
    vertex 0.0 3.9022506681337155 -18.936833641267494
    vertex 224.73222475626466 10.465114309919425 -15.756086797054046
  endloop
endfacet
facet normal -4.0377393261672e-19 -0.43613498859666655 0.8998812542340159
  outer loop
    vertex 224.73222475626466 10.465114309919425 -15.756086797054046
    vertex 0.0 3.9022506681337155 -18.936833641267494
    vertex 224.3402195723284 9.63979667913419 -16.156083900891414
  endloop
endfacet
facet normal -4.0377393261672e-19 -0.43613498859666655 0.8998812542340159
  outer loop
    vertex 224.3402195723284 9.63979667913419 -16.156083900891414
    vertex 0.0 3.9022506681337155 -18.936833641267494
    vertex 224.17517956223134 8.741142657285405 -16.591624101031467
  endloop
endfacet
facet normal -4.0377393261672e-19 -0.43613498859666655 0.8998812542340159
  outer loop
    vertex 235.00000000000003 13.500000000000004 -14.28520402267938
    vertex 226.93740308885324 11.9859931290276 -15.018980136249928
    vertex 227.84815171527248 12.059165496716274 -14.983516535249976
  endloop
endfacet
facet normal -4.0377393261672e-19 -0.43613498859666655 0.8998812542340159
  outer loop
    vertex 235.00000000000003 13.500000000000004 -14.28520402267938
    vertex 227.84815171527248 12.059165496716274 -14.983516535249976
    vertex 228.74680573712126 11.89412548661921 -15.063504558761968
  endloop
endfacet
facet normal -4.0377393261672e-19 -0.43613498859666655 0.8998812542340159
  outer loop
    vertex 235.00000000000003 13.500000000000004 -14.28520402267938
    vertex 228.74680573712126 11.89412548661921 -15.063504558761968
    vertex 229.57212336790656 11.502120302683005 -15.253493155170041
  endloop
endfacet
facet normal -4.0377393261672e-19 -0.43613498859666655 0.8998812542340159
  outer loop
    vertex 235.00000000000003 13.500000000000004 -14.28520402267938
    vertex 229.57212336790656 11.502120302683005 -15.253493155170041
    vertex 230.26786057499203 10.909864450373696 -15.540534915599975
  endloop
endfacet
facet normal -4.0377393261672e-19 -0.43613498859666655 0.8998812542340159
  outer loop
    vertex 235.00000000000003 13.500000000000004 -14.28520402267938
    vertex 230.26786057499203 10.909864450373696 -15.540534915599975
    vertex 230.78660401747518 10.157719187277117 -15.905068418437402
  endloop
endfacet
facet normal -4.0377393261672e-19 -0.43613498859666655 0.8998812542340159
  outer loop
    vertex 235.00000000000003 13.500000000000004 -14.28520402267938
    vertex 230.78660401747518 10.157719187277117 -15.905068418437402
    vertex 231.09300218701466 9.296941970094503 -16.322251307884038
  endloop
endfacet
facet normal -4.0377393261672e-19 -0.43613498859666655 0.8998812542340159
  outer loop
    vertex 235.00000000000003 13.500000000000004 -14.28520402267938
    vertex 231.09300218701466 9.296941970094503 -16.322251307884038
    vertex 231.16617455470336 8.386193343675194 -16.76365325945144
  endloop
endfacet
facet normal -4.0377393261672e-19 -0.43613498859666655 0.8998812542340159
  outer loop
    vertex 235.00000000000003 13.500000000000004 -14.28520402267938
    vertex 231.16617455470336 8.386193343675194 -16.76365325945144
    vertex 235.00000000000003 3.9022506681337155 -18.936833641267494
  endloop
endfacet
facet normal -1.0774746028970096e-18 0.4651629618588112 0.8852250668133715
  outer loop
    vertex 235.00000000000003 -4.949999999999999 -14.28520402267938
    vertex 0.0 3.9022506681337155 -18.936833641267494
    vertex -4.511946372076636e-14 -4.949999999999999 -14.28520402267938
  endloop
endfacet
facet normal -1.0774746028970096e-18 0.4651629618588112 0.8852250668133715
  outer loop
    vertex 0.0 3.9022506681337155 -18.936833641267494
    vertex 235.00000000000003 -4.949999999999999 -14.28520402267938
    vertex 235.00000000000003 3.9022506681337155 -18.936833641267494
  endloop
endfacet
facet normal 0.0 0.0 -1.0
  outer loop
    vertex 236.50000000000009 15.000000000000004 -20.28520402267938
    vertex -1.6000000000000423 -6.449999999999998 -20.28520402267938
    vertex -1.6000000000000423 15.000000000000004 -20.28520402267938
  endloop
endfacet
facet normal 0.0 0.0 -1.0
  outer loop
    vertex -1.6000000000000423 -6.449999999999998 -20.28520402267938
    vertex 236.50000000000009 15.000000000000004 -20.28520402267938
    vertex 226.9374030888532 11.9859931290276 -20.285204022679377
  endloop
endfacet
facet normal 0.0 0.0 -1.0
  outer loop
    vertex -1.6000000000000423 -6.449999999999998 -20.28520402267938
    vertex 226.9374030888532 11.9859931290276 -20.285204022679377
    vertex 226.07662587167053 11.679594959488112 -20.285204022679377
  endloop
endfacet
facet normal 0.0 0.0 -1.0
  outer loop
    vertex -1.6000000000000423 -6.449999999999998 -20.28520402267938
    vertex 226.07662587167053 11.679594959488112 -20.285204022679377
    vertex 225.32448060857402 11.160851517005012 -20.28520402267938
  endloop
endfacet
facet normal 0.0 0.0 -1.0
  outer loop
    vertex -1.6000000000000423 -6.449999999999998 -20.28520402267938
    vertex 225.32448060857402 11.160851517005012 -20.28520402267938
    vertex 224.73222475626466 10.465114309919436 -20.285204022679377
  endloop
endfacet
facet normal 0.0 0.0 -1.0
  outer loop
    vertex -1.6000000000000423 -6.449999999999998 -20.28520402267938
    vertex 224.73222475626466 10.465114309919436 -20.285204022679377
    vertex 224.3402195723284 9.63979667913419 -20.285204022679377
  endloop
endfacet
facet normal 0.0 0.0 -1.0
  outer loop
    vertex -1.6000000000000423 -6.449999999999998 -20.28520402267938
    vertex 224.3402195723284 9.63979667913419 -20.285204022679377
    vertex 224.17517956223134 8.741142657285405 -20.285204022679377
  endloop
endfacet
facet normal 0.0 0.0 -1.0
  outer loop
    vertex 226.9374030888532 11.9859931290276 -20.285204022679377
    vertex 236.50000000000009 15.000000000000004 -20.28520402267938
    vertex 227.8481517152725 12.05916549671626 -20.285204022679377
  endloop
endfacet
facet normal 0.0 0.0 -1.0
  outer loop
    vertex 227.8481517152725 12.05916549671626 -20.285204022679377
    vertex 236.50000000000009 15.000000000000004 -20.28520402267938
    vertex 228.74680573712126 11.8941254866192 -20.285204022679377
  endloop
endfacet
facet normal 0.0 0.0 -1.0
  outer loop
    vertex 228.74680573712126 11.8941254866192 -20.285204022679377
    vertex 236.50000000000009 15.000000000000004 -20.28520402267938
    vertex 229.57212336790656 11.502120302682993 -20.285204022679377
  endloop
endfacet
facet normal 0.0 0.0 -1.0
  outer loop
    vertex 229.57212336790656 11.502120302682993 -20.285204022679377
    vertex 236.50000000000009 15.000000000000004 -20.28520402267938
    vertex 230.26786057499203 10.909864450373696 -20.285204022679377
  endloop
endfacet
facet normal 0.0 0.0 -1.0
  outer loop
    vertex 230.26786057499203 10.909864450373696 -20.285204022679377
    vertex 236.50000000000009 15.000000000000004 -20.28520402267938
    vertex 230.78660401747518 10.157719187277117 -20.285204022679377
  endloop
endfacet
facet normal 0.0 0.0 -1.0
  outer loop
    vertex 230.78660401747518 10.157719187277117 -20.285204022679377
    vertex 236.50000000000009 15.000000000000004 -20.28520402267938
    vertex 231.09300218701466 9.2969419700945 -20.285204022679377
  endloop
endfacet
facet normal 0.0 0.0 -1.0
  outer loop
    vertex 231.09300218701466 9.2969419700945 -20.285204022679377
    vertex 236.50000000000009 15.000000000000004 -20.28520402267938
    vertex 231.16617455470328 8.386193343675195 -20.285204022679377
  endloop
endfacet
facet normal 0.0 0.0 -1.0
  outer loop
    vertex -1.6000000000000423 -6.449999999999998 -20.28520402267938
    vertex 225.0734935419427 6.21747155058686 -20.285204022679377
    vertex 236.50000000000009 -6.449999999999998 -20.28520402267938
  endloop
endfacet
facet normal 0.0 0.0 -1.0
  outer loop
    vertex 225.0734935419427 6.21747155058686 -20.285204022679377
    vertex -1.6000000000000423 -6.449999999999998 -20.28520402267938
    vertex 224.55475009945957 6.969616813683443 -20.285204022679377
  endloop
endfacet
facet normal 0.0 0.0 -1.0
  outer loop
    vertex 224.55475009945957 6.969616813683443 -20.285204022679377
    vertex -1.6000000000000423 -6.449999999999998 -20.28520402267938
    vertex 224.24835192992003 7.830394030866081 -20.285204022679377
  endloop
endfacet
facet normal 0.0 0.0 -1.0
  outer loop
    vertex 224.24835192992003 7.830394030866081 -20.285204022679377
    vertex -1.6000000000000423 -6.449999999999998 -20.28520402267938
    vertex 224.17517956223134 8.741142657285405 -20.285204022679377
  endloop
endfacet
facet normal 0.0 0.0 -1.0
  outer loop
    vertex 236.50000000000009 -6.449999999999998 -20.28520402267938
    vertex 225.0734935419427 6.21747155058686 -20.285204022679377
    vertex 225.76923074902822 5.625215698277587 -20.285204022679377
  endloop
endfacet
facet normal 0.0 0.0 -1.0
  outer loop
    vertex 236.50000000000009 -6.449999999999998 -20.28520402267938
    vertex 225.76923074902822 5.625215698277587 -20.285204022679377
    vertex 226.5945483798135 5.233210514341361 -20.285204022679377
  endloop
endfacet
facet normal 0.0 0.0 -1.0
  outer loop
    vertex 236.50000000000009 -6.449999999999998 -20.28520402267938
    vertex 226.5945483798135 5.233210514341361 -20.285204022679377
    vertex 227.49320240166233 5.0681705042443115 -20.285204022679377
  endloop
endfacet
facet normal 0.0 0.0 -1.0
  outer loop
    vertex 236.50000000000009 -6.449999999999998 -20.28520402267938
    vertex 227.49320240166233 5.0681705042443115 -20.285204022679377
    vertex 228.40395102808156 5.141342871932985 -20.285204022679377
  endloop
endfacet
facet normal 0.0 0.0 -1.0
  outer loop
    vertex 236.50000000000009 -6.449999999999998 -20.28520402267938
    vertex 228.40395102808156 5.141342871932985 -20.285204022679377
    vertex 229.26472824526422 5.447741041472485 -20.285204022679377
  endloop
endfacet
facet normal 0.0 0.0 -1.0
  outer loop
    vertex 236.50000000000009 -6.449999999999998 -20.28520402267938
    vertex 229.26472824526422 5.447741041472485 -20.285204022679377
    vertex 230.01687350836073 5.966484483955591 -20.285204022679377
  endloop
endfacet
facet normal 0.0 0.0 -1.0
  outer loop
    vertex 236.50000000000009 -6.449999999999998 -20.28520402267938
    vertex 230.01687350836073 5.966484483955591 -20.285204022679377
    vertex 230.6091293606701 6.66222169104116 -20.285204022679377
  endloop
endfacet
facet normal 0.0 0.0 -1.0
  outer loop
    vertex 236.50000000000009 -6.449999999999998 -20.28520402267938
    vertex 230.6091293606701 6.66222169104116 -20.285204022679377
    vertex 231.0011345446062 7.487539321826414 -20.285204022679377
  endloop
endfacet
facet normal 0.0 0.0 -1.0
  outer loop
    vertex 236.50000000000009 -6.449999999999998 -20.28520402267938
    vertex 231.0011345446062 7.487539321826414 -20.285204022679377
    vertex 231.16617455470328 8.386193343675195 -20.285204022679377
  endloop
endfacet
facet normal 0.0 0.0 -1.0
  outer loop
    vertex 236.50000000000009 -6.449999999999998 -20.28520402267938
    vertex 231.16617455470328 8.386193343675195 -20.285204022679377
    vertex 236.50000000000009 15.000000000000004 -20.28520402267938
  endloop
endfacet
facet normal 1.0572735571708836e-08 -0.9999999999459657 -1.0395617617064297e-05
  outer loop
    vertex 235.00000000000003 13.500000000000004 -14.28520402267938
    vertex 229.89087091453845 13.499782590252469 -3.0362140750754114
    vertex -4.511946372076636e-14 13.500000000000004 -14.28520402267938
  endloop
endfacet
facet normal 1.0572735571708836e-08 -0.9999999999459657 -1.0395617617064297e-05
  outer loop
    vertex 229.89087091453845 13.499782590252469 -3.0362140750754114
    vertex 235.00000000000003 13.500000000000004 -14.28520402267938
    vertex 235.00000000000003 13.499999999999998 -2.7862144532125446
  endloop
endfacet
facet normal 1.0572735571708836e-08 -0.9999999999459657 -1.0395617617064297e-05
  outer loop
    vertex 229.89087091453845 13.499782590252469 -3.0362140750754114
    vertex 235.00000000000003 13.499999999999998 -2.7862144532125446
    vertex 231.72141634768286 13.499860485802026 -2.9466416839385854
  endloop
endfacet
facet normal 0.080085040452822 -0.996788034787572 1.2312085869119403e-15
  outer loop
    vertex 227.84815171527248 12.059165496716274 -14.983516535249976
    vertex 226.9374030888532 11.9859931290276 -20.285204022679377
    vertex 227.8481517152725 12.05916549671626 -20.285204022679377
  endloop
endfacet
facet normal 0.080085040452822 -0.996788034787572 1.2312085869119403e-15
  outer loop
    vertex 226.9374030888532 11.9859931290276 -20.285204022679377
    vertex 227.84815171527248 12.059165496716274 -14.983516535249976
    vertex 226.93740308885324 11.9859931290276 -15.018980136249928
  endloop
endfacet
facet normal 0.9835508398342391 -0.18063151846054712 -2.200773243487573e-18
  outer loop
    vertex 224.3402195723284 9.63979667913419 -20.285204022679377
    vertex 224.17517956223134 8.741142657285405 -16.591624101031467
    vertex 224.17517956223134 8.741142657285405 -20.285204022679377
  endloop
endfacet
facet normal 0.9835508398342391 -0.18063151846054712 -2.200773243487573e-18
  outer loop
    vertex 224.17517956223134 8.741142657285405 -16.591624101031467
    vertex 224.3402195723284 9.63979667913419 -20.285204022679377
    vertex 224.3402195723284 9.63979667913419 -16.156083900891414
  endloop
endfacet
facet normal -0.3353439362061305 0.9420957724402435 3.2020221848194648e-15
  outer loop
    vertex 228.40395102808156 5.14134287193298 -18.336297224232993
    vertex 229.26472824526422 5.447741041472485 -20.285204022679377
    vertex 228.40395102808156 5.141342871932985 -20.285204022679377
  endloop
endfacet
facet normal -0.3353439362061305 0.9420957724402435 3.2020221848194648e-15
  outer loop
    vertex 229.26472824526422 5.447741041472485 -20.285204022679377
    vertex 228.40395102808156 5.14134287193298 -18.336297224232993
    vertex 229.26472824526422 5.447741041472477 -18.187798784522858
  endloop
endfacet
facet normal 0.9032862805407962 -0.4290383378985776 -5.376190754517797e-16
  outer loop
    vertex 224.73222475626466 10.465114309919436 -20.285204022679377
    vertex 224.3402195723284 9.63979667913419 -16.156083900891414
    vertex 224.3402195723284 9.63979667913419 -20.285204022679377
  endloop
endfacet
facet normal 0.9032862805407962 -0.4290383378985776 -5.376190754517797e-16
  outer loop
    vertex 224.3402195723284 9.63979667913419 -16.156083900891414
    vertex 224.73222475626466 10.465114309919436 -20.285204022679377
    vertex 224.73222475626466 10.465114309919425 -15.756086797054046
  endloop
endfacet
facet normal 0.5677496968890487 -0.8232012400879833 -2.496672775880704e-16
  outer loop
    vertex 226.07662587167053 11.679594959488112 -20.285204022679377
    vertex 225.32448060857396 11.160851517004993 -15.418891931119395
    vertex 225.32448060857402 11.160851517005012 -20.28520402267938
  endloop
endfacet
facet normal 0.5677496968890487 -0.8232012400879833 -2.496672775880704e-16
  outer loop
    vertex 225.32448060857396 11.160851517004993 -15.418891931119395
    vertex 226.07662587167053 11.679594959488112 -20.285204022679377
    vertex 226.07662587167053 11.6795949594881 -15.167478575960057
  endloop
endfacet
facet normal -0.9420957724402542 -0.3353439362061 1.016344630283299e-16
  outer loop
    vertex 231.09300218701466 9.296941970094503 -16.322251307884038
    vertex 230.78660401747518 10.157719187277117 -20.285204022679377
    vertex 231.09300218701466 9.2969419700945 -20.285204022679377
  endloop
endfacet
facet normal -0.9420957724402542 -0.3353439362061 1.016344630283299e-16
  outer loop
    vertex 230.78660401747518 10.157719187277117 -20.285204022679377
    vertex 231.09300218701466 9.296941970094503 -16.322251307884038
    vertex 230.78660401747518 10.157719187277117 -15.905068418437402
  endloop
endfacet
facet normal -0.9032862805408345 0.4290383378984971 7.330569865380232e-15
  outer loop
    vertex 231.00113454460626 7.487539321826409 -17.199193459591495
    vertex 230.6091293606701 6.66222169104116 -20.285204022679377
    vertex 230.6091293606701 6.66222169104116 -17.599190563428873
  endloop
endfacet
facet normal -0.9032862805408345 0.4290383378984971 7.330569865380232e-15
  outer loop
    vertex 230.6091293606701 6.66222169104116 -20.285204022679377
    vertex 231.00113454460626 7.487539321826409 -17.199193459591495
    vertex 231.0011345446062 7.487539321826414 -20.285204022679377
  endloop
endfacet
facet normal 0.9420957724402396 0.33534393620614117 3.1141533504472586e-15
  outer loop
    vertex 224.55475009945957 6.969616813683443 -20.285204022679377
    vertex 224.24835192992003 7.830394030866081 -17.033026052598878
    vertex 224.55475009945957 6.96961681368344 -17.450208942045528
  endloop
endfacet
facet normal 0.9420957724402396 0.33534393620614117 3.1141533504472586e-15
  outer loop
    vertex 224.24835192992003 7.830394030866081 -17.033026052598878
    vertex 224.55475009945957 6.969616813683443 -20.285204022679377
    vertex 224.24835192992003 7.830394030866081 -20.285204022679377
  endloop
endfacet
facet normal -0.9835508398342417 0.18063151846053283 1.5841621741067745e-14
  outer loop
    vertex 231.16617455470336 8.386193343675194 -16.76365325945144
    vertex 231.0011345446062 7.487539321826414 -20.285204022679377
    vertex 231.00113454460626 7.487539321826409 -17.199193459591495
  endloop
endfacet
facet normal -0.9835508398342417 0.18063151846053283 1.5841621741067745e-14
  outer loop
    vertex 231.0011345446062 7.487539321826414 -20.285204022679377
    vertex 231.16617455470336 8.386193343675194 -16.76365325945144
    vertex 231.16617455470328 8.386193343675195 -20.285204022679377
  endloop
endfacet
facet normal -0.6482069036281649 -0.7614642539796512 1.0392184759717787e-15
  outer loop
    vertex 230.26786057499203 10.909864450373696 -15.540534915599975
    vertex 229.57212336790656 11.502120302682993 -20.285204022679377
    vertex 230.26786057499203 10.909864450373696 -20.285204022679377
  endloop
endfacet
facet normal -0.6482069036281649 -0.7614642539796512 1.0392184759717787e-15
  outer loop
    vertex 229.57212336790656 11.502120302682993 -20.285204022679377
    vertex 230.26786057499203 10.909864450373696 -15.540534915599975
    vertex 229.57212336790656 11.502120302683005 -15.253493155170041
  endloop
endfacet
facet normal -0.56774969688906 0.8232012400879753 3.748448805866123e-15
  outer loop
    vertex 229.26472824526422 5.447741041472477 -18.187798784522858
    vertex 230.01687350836073 5.966484483955591 -20.285204022679377
    vertex 229.26472824526422 5.447741041472485 -20.285204022679377
  endloop
endfacet
facet normal -0.56774969688906 0.8232012400879753 3.748448805866123e-15
  outer loop
    vertex 230.01687350836073 5.966484483955591 -20.285204022679377
    vertex 229.26472824526422 5.447741041472477 -18.187798784522858
    vertex 230.01687350836073 5.96648448395558 -17.936385429363526
  endloop
endfacet
facet normal 0.8232012400879698 0.5677496968890681 -1.449660616197794e-15
  outer loop
    vertex 224.55475009945957 6.969616813683443 -20.285204022679377
    vertex 225.0734935419427 6.2174715505868825 -17.814742444882953
    vertex 225.0734935419427 6.21747155058686 -20.285204022679377
  endloop
endfacet
facet normal 0.8232012400879698 0.5677496968890681 -1.449660616197794e-15
  outer loop
    vertex 225.0734935419427 6.2174715505868825 -17.814742444882953
    vertex 224.55475009945957 6.969616813683443 -20.285204022679377
    vertex 224.55475009945957 6.96961681368344 -17.450208942045528
  endloop
endfacet
facet normal -0.7614642539796893 0.6482069036281205 1.4018822364813532e-15
  outer loop
    vertex 230.6091293606701 6.66222169104116 -17.599190563428873
    vertex 230.01687350836073 5.966484483955591 -20.285204022679377
    vertex 230.01687350836073 5.96648448395558 -17.936385429363526
  endloop
endfacet
facet normal -0.7614642539796893 0.6482069036281205 1.4018822364813532e-15
  outer loop
    vertex 230.01687350836073 5.966484483955591 -20.285204022679377
    vertex 230.6091293606701 6.66222169104116 -17.599190563428873
    vertex 230.6091293606701 6.66222169104116 -20.285204022679377
  endloop
endfacet
facet normal -0.9967880347875725 -0.08008504045281599 7.774930345352145e-15
  outer loop
    vertex 231.09300218701466 9.296941970094503 -16.322251307884038
    vertex 231.16617455470328 8.386193343675195 -20.285204022679377
    vertex 231.16617455470336 8.386193343675194 -16.76365325945144
  endloop
endfacet
facet normal -0.9967880347875725 -0.08008504045281599 7.774930345352145e-15
  outer loop
    vertex 231.16617455470328 8.386193343675195 -20.285204022679377
    vertex 231.09300218701466 9.296941970094503 -16.322251307884038
    vertex 231.09300218701466 9.2969419700945 -20.285204022679377
  endloop
endfacet
facet normal -0.18063151846054346 -0.9835508398342397 1.4651811360103633e-15
  outer loop
    vertex 228.74680573712126 11.89412548661921 -15.063504558761968
    vertex 227.8481517152725 12.05916549671626 -20.285204022679377
    vertex 228.74680573712126 11.8941254866192 -20.285204022679377
  endloop
endfacet
facet normal -0.18063151846054346 -0.9835508398342397 1.4651811360103633e-15
  outer loop
    vertex 227.8481517152725 12.05916549671626 -20.285204022679377
    vertex 228.74680573712126 11.89412548661921 -15.063504558761968
    vertex 227.84815171527248 12.059165496716274 -14.983516535249976
  endloop
endfacet
facet normal 0.1806315184605203 0.983550839834244 -6.404535463405314e-16
  outer loop
    vertex 226.5945483798135 5.233210514341361 -18.29177280172095
    vertex 227.49320240166233 5.0681705042443115 -20.285204022679377
    vertex 226.5945483798135 5.233210514341361 -20.285204022679377
  endloop
endfacet
facet normal 0.1806315184605203 0.983550839834244 -6.404535463405314e-16
  outer loop
    vertex 227.49320240166233 5.0681705042443115 -20.285204022679377
    vertex 226.5945483798135 5.233210514341361 -18.29177280172095
    vertex 227.49320240166233 5.068170504244314 -18.371760825232943
  endloop
endfacet
facet normal 0.6482069036281084 0.7614642539796994 -8.580967192347185e-15
  outer loop
    vertex 225.0734935419427 6.2174715505868825 -17.814742444882953
    vertex 225.76923074902822 5.625215698277587 -20.285204022679377
    vertex 225.0734935419427 6.21747155058686 -20.285204022679377
  endloop
endfacet
facet normal 0.6482069036281084 0.7614642539796994 -8.580967192347185e-15
  outer loop
    vertex 225.76923074902822 5.625215698277587 -20.285204022679377
    vertex 225.0734935419427 6.2174715505868825 -17.814742444882953
    vertex 225.76923074902822 5.625215698277597 -18.101784205312875
  endloop
endfacet
facet normal -0.42903833789851176 -0.9032862805408274 2.0548612147920348e-15
  outer loop
    vertex 229.57212336790656 11.502120302683005 -15.253493155170041
    vertex 228.74680573712126 11.8941254866192 -20.285204022679377
    vertex 229.57212336790656 11.502120302682993 -20.285204022679377
  endloop
endfacet
facet normal -0.42903833789851176 -0.9032862805408274 2.0548612147920348e-15
  outer loop
    vertex 228.74680573712126 11.8941254866192 -20.285204022679377
    vertex 229.57212336790656 11.502120302683005 -15.253493155170041
    vertex 228.74680573712126 11.89412548661921 -15.063504558761968
  endloop
endfacet
facet normal -0.0800850404528271 0.9967880347875716 6.877037505220927e-16
  outer loop
    vertex 227.49320240166233 5.068170504244314 -18.371760825232943
    vertex 228.40395102808156 5.141342871932985 -20.285204022679377
    vertex 227.49320240166233 5.0681705042443115 -20.285204022679377
  endloop
endfacet
facet normal -0.0800850404528271 0.9967880347875716 6.877037505220927e-16
  outer loop
    vertex 228.40395102808156 5.141342871932985 -20.285204022679377
    vertex 227.49320240166233 5.068170504244314 -18.371760825232943
    vertex 228.40395102808156 5.14134287193298 -18.336297224232993
  endloop
endfacet
facet normal 0.4290383378985448 0.9032862805408117 -2.4821649998885458e-15
  outer loop
    vertex 225.76923074902822 5.625215698277597 -18.101784205312875
    vertex 226.5945483798135 5.233210514341361 -20.285204022679377
    vertex 225.76923074902822 5.625215698277587 -20.285204022679377
  endloop
endfacet
facet normal 0.4290383378985448 0.9032862805408117 -2.4821649998885458e-15
  outer loop
    vertex 226.5945483798135 5.233210514341361 -20.285204022679377
    vertex 225.76923074902822 5.625215698277597 -18.101784205312875
    vertex 226.5945483798135 5.233210514341361 -18.29177280172095
  endloop
endfacet
facet normal 0.335343936206125 -0.9420957724402452 -2.4063308366804974e-15
  outer loop
    vertex 226.93740308885324 11.9859931290276 -15.018980136249928
    vertex 226.07662587167053 11.679594959488112 -20.285204022679377
    vertex 226.9374030888532 11.9859931290276 -20.285204022679377
  endloop
endfacet
facet normal 0.335343936206125 -0.9420957724402452 -2.4063308366804974e-15
  outer loop
    vertex 226.07662587167053 11.679594959488112 -20.285204022679377
    vertex 226.93740308885324 11.9859931290276 -15.018980136249928
    vertex 226.07662587167053 11.6795949594881 -15.167478575960057
  endloop
endfacet
facet normal 0.7614642539796758 -0.6482069036281362 1.3971588756108103e-15
  outer loop
    vertex 224.73222475626466 10.465114309919436 -20.285204022679377
    vertex 225.32448060857396 11.160851517004993 -15.418891931119395
    vertex 224.73222475626466 10.465114309919425 -15.756086797054046
  endloop
endfacet
facet normal 0.7614642539796758 -0.6482069036281362 1.3971588756108103e-15
  outer loop
    vertex 225.32448060857396 11.160851517004993 -15.418891931119395
    vertex 224.73222475626466 10.465114309919436 -20.285204022679377
    vertex 225.32448060857402 11.160851517005012 -20.28520402267938
  endloop
endfacet
facet normal 0.9967880347875684 0.08008504045286897 0.0
  outer loop
    vertex 224.17517956223134 8.741142657285405 -20.285204022679377
    vertex 224.24835192992003 7.830394030866081 -17.033026052598878
    vertex 224.24835192992003 7.830394030866081 -20.285204022679377
  endloop
endfacet
facet normal 0.9967880347875684 0.08008504045286897 0.0
  outer loop
    vertex 224.24835192992003 7.830394030866081 -17.033026052598878
    vertex 224.17517956223134 8.741142657285405 -20.285204022679377
    vertex 224.17517956223134 8.741142657285405 -16.591624101031467
  endloop
endfacet
facet normal -0.8232012400879627 -0.5677496968890783 -3.8709172653898315e-18
  outer loop
    vertex 230.26786057499203 10.909864450373696 -15.540534915599975
    vertex 230.78660401747518 10.157719187277117 -20.285204022679377
    vertex 230.78660401747518 10.157719187277117 -15.905068418437402
  endloop
endfacet
facet normal -0.8232012400879627 -0.5677496968890783 -3.8709172653898315e-18
  outer loop
    vertex 230.78660401747518 10.157719187277117 -20.285204022679377
    vertex 230.26786057499203 10.909864450373696 -15.540534915599975
    vertex 230.26786057499203 10.909864450373696 -20.285204022679377
  endloop
endfacet
facet normal -8.200024953860642e-09 8.143676406508545e-08 0.9999999999999967
  outer loop
    vertex 229.89087091453845 13.499782590252469 -3.0362140750754114
    vertex 225.72739791056227 15.000000000000004 -3.036214453212544
    vertex 225.72739791056227 13.499171693439196 -3.036214453212544
  endloop
endfacet
facet normal -8.200024953860642e-09 8.143676406508545e-08 0.9999999999999967
  outer loop
    vertex 225.72739791056227 15.000000000000004 -3.036214453212544
    vertex 229.89087091453845 13.499782590252469 -3.0362140750754114
    vertex 231.72141634768286 15.000000000000004 -3.036214453212544
  endloop
endfacet
facet normal -8.200024953860642e-09 8.143676406508545e-08 0.9999999999999967
  outer loop
    vertex 231.72141634768286 15.000000000000004 -3.036214453212544
    vertex 229.89087091453845 13.499782590252469 -3.0362140750754114
    vertex 231.72141634768286 13.499720971604056 -3.036214453212544
  endloop
endfacet
facet normal 1.0 0.0 0.0
  outer loop
    vertex 225.72739791056227 15.000000000000004 -3.036214453212544
    vertex 225.72739791056227 13.499171693439196 -2.7862144532125446
    vertex 225.72739791056227 13.499171693439196 -3.036214453212544
  endloop
endfacet
facet normal 1.0 0.0 0.0
  outer loop
    vertex 225.72739791056227 13.499171693439196 -2.7862144532125446
    vertex 225.72739791056227 15.000000000000004 -3.036214453212544
    vertex 225.72739791056227 15.000000000000004 -2.7862144532125446
  endloop
endfacet
facet normal -9.367261234892683e-05 0.999999955910079 0.0002817894281904898
  outer loop
    vertex 231.72141634768286 13.499860485802026 -2.9466416839385854
    vertex 231.72141634768286 13.499720971604056 -3.036214453212544
    vertex 229.89087091453845 13.499782590252469 -3.0362140750754114
  endloop
endfacet
facet normal -1.0 0.0 0.0
  outer loop
    vertex 231.72141634768286 15.000000000000004 -2.7862144532125446
    vertex 231.72141634768286 13.499860485802026 -2.9466416839385854
    vertex 231.72141634768286 13.499720971604056 -2.7862144532125446
  endloop
endfacet
facet normal -1.0 0.0 0.0
  outer loop
    vertex 231.72141634768286 13.499860485802026 -2.9466416839385854
    vertex 231.72141634768286 15.000000000000004 -3.036214453212544
    vertex 231.72141634768286 13.499720971604056 -3.036214453212544
  endloop
endfacet
facet normal -1.0 0.0 0.0
  outer loop
    vertex 231.72141634768286 15.000000000000004 -3.036214453212544
    vertex 231.72141634768286 13.499860485802026 -2.9466416839385854
    vertex 231.72141634768286 15.000000000000004 -2.7862144532125446
  endloop
endfacet
facet normal 0.0 0.0 1.0
  outer loop
    vertex 225.72739791056227 13.499171693439196 -2.7862144532125446
    vertex 120.47987914745511 15.000000000000004 -2.7862144532125446
    vertex 120.47987914745511 13.490232711358868 -2.7862144532125446
  endloop
endfacet
facet normal 0.0 0.0 1.0
  outer loop
    vertex 120.47987914745511 15.000000000000004 -2.7862144532125446
    vertex 225.72739791056227 13.499171693439196 -2.7862144532125446
    vertex 225.72739791056227 15.000000000000004 -2.7862144532125446
  endloop
endfacet
facet normal 0.0 0.0 1.0
  outer loop
    vertex 120.47987914745511 13.490232711358868 -3.036214453212544
    vertex 114.51420008247254 15.000000000000004 -3.036214453212544
    vertex 114.51420008247254 13.489726028646672 -3.036214453212544
  endloop
endfacet
facet normal 0.0 0.0 1.0
  outer loop
    vertex 114.51420008247254 15.000000000000004 -3.036214453212544
    vertex 120.47987914745511 13.490232711358868 -3.036214453212544
    vertex 120.47987914745511 15.000000000000004 -3.036214453212544
  endloop
endfacet
facet normal 1.0 0.0 0.0
  outer loop
    vertex 114.51420008247254 15.000000000000004 -3.036214453212544
    vertex 114.51420008247254 13.489726028646672 -2.7862144532125446
    vertex 114.51420008247254 13.489726028646672 -3.036214453212544
  endloop
endfacet
facet normal 1.0 0.0 0.0
  outer loop
    vertex 114.51420008247254 13.489726028646672 -2.7862144532125446
    vertex 114.51420008247254 15.000000000000004 -3.036214453212544
    vertex 114.51420008247254 15.000000000000004 -2.7862144532125446
  endloop
endfacet
facet normal -1.0 0.0 0.0
  outer loop
    vertex 120.47987914745511 15.000000000000004 -2.7862144532125446
    vertex 120.47987914745511 13.490232711358868 -3.036214453212544
    vertex 120.47987914745511 13.490232711358868 -2.7862144532125446
  endloop
endfacet
facet normal -1.0 0.0 0.0
  outer loop
    vertex 120.47987914745511 13.490232711358868 -3.036214453212544
    vertex 120.47987914745511 15.000000000000004 -2.7862144532125446
    vertex 120.47987914745511 15.000000000000004 -3.036214453212544
  endloop
endfacet
facet normal 0.0 0.0 1.0
  outer loop
    vertex 114.51420008247254 13.489726028646672 -2.7862144532125446
    vertex 9.28507037407404 15.000000000000004 -2.7862144532125446
    vertex 9.28507037407404 13.480788608402976 -2.7862144532125446
  endloop
endfacet
facet normal 0.0 0.0 1.0
  outer loop
    vertex 9.28507037407404 15.000000000000004 -2.7862144532125446
    vertex 114.51420008247254 13.489726028646672 -2.7862144532125446
    vertex 114.51420008247254 15.000000000000004 -2.7862144532125446
  endloop
endfacet
facet normal 8.473326501155506e-05 -0.9999984610327323 -0.0017523562540164097
  outer loop
    vertex 229.89087091453845 13.499782590252469 -3.0362140750754114
    vertex 225.72739791056227 13.499171693439196 -3.036214453212544
    vertex -4.511946372076636e-14 13.500000000000004 -14.28520402267938
  endloop
endfacet
facet normal 8.473326501155506e-05 -0.9999984610327323 -0.0017523562540164097
  outer loop
    vertex 225.72739791056227 13.499171693439196 -2.7862144532125446
    vertex 120.47987914745511 13.490232711358868 -3.036214453212544
    vertex 225.72739791056227 13.499171693439196 -3.036214453212544
  endloop
endfacet
facet normal 8.473326501155506e-05 -0.9999984610327323 -0.0017523562540164097
  outer loop
    vertex 120.47987914745511 13.490232711358868 -3.036214453212544
    vertex 225.72739791056227 13.499171693439196 -2.7862144532125446
    vertex 120.47987914745511 13.490232711358868 -2.7862144532125446
  endloop
endfacet
facet normal 8.473326501155506e-05 -0.9999984610327323 -0.0017523562540164097
  outer loop
    vertex 114.51420008247254 13.489726028646672 -2.7862144532125446
    vertex 9.28507037407404 13.480788608402976 -3.036214453212544
    vertex 114.51420008247254 13.489726028646672 -3.036214453212544
  endloop
endfacet
facet normal 8.473326501155506e-05 -0.9999984610327323 -0.0017523562540164097
  outer loop
    vertex 9.28507037407404 13.480788608402976 -3.036214453212544
    vertex 114.51420008247254 13.489726028646672 -2.7862144532125446
    vertex 9.28507037407404 13.480788608402976 -2.7862144532125446
  endloop
endfacet
facet normal 8.473326501155506e-05 -0.9999984610327323 -0.0017523562540164097
  outer loop
    vertex -4.511946372076636e-14 13.500000000000004 -14.28520402267938
    vertex 3.2189155933135454 13.480273391991995 -3.036214453212544
    vertex -4.511946372076636e-14 13.480000000000006 -2.7862144532125446
  endloop
endfacet
facet normal 8.473326501155506e-05 -0.9999984610327323 -0.0017523562540164097
  outer loop
    vertex 3.2189155933135454 13.480273391991995 -3.036214453212544
    vertex -4.511946372076636e-14 13.500000000000004 -14.28520402267938
    vertex 225.72739791056227 13.499171693439196 -3.036214453212544
  endloop
endfacet
facet normal 8.473326501155506e-05 -0.9999984610327323 -0.0017523562540164097
  outer loop
    vertex 3.2189155933135454 13.480273391991995 -3.036214453212544
    vertex 225.72739791056227 13.499171693439196 -3.036214453212544
    vertex 120.47987914745511 13.490232711358868 -3.036214453212544
  endloop
endfacet
facet normal 8.473326501155506e-05 -0.9999984610327323 -0.0017523562540164097
  outer loop
    vertex 3.2189155933135454 13.480273391991995 -3.036214453212544
    vertex 120.47987914745511 13.490232711358868 -3.036214453212544
    vertex 114.51420008247254 13.489726028646672 -3.036214453212544
  endloop
endfacet
facet normal 8.473326501155506e-05 -0.9999984610327323 -0.0017523562540164097
  outer loop
    vertex 3.2189155933135454 13.480273391991995 -3.036214453212544
    vertex 114.51420008247254 13.489726028646672 -3.036214453212544
    vertex 9.28507037407404 13.480788608402976 -3.036214453212544
  endloop
endfacet
facet normal 8.473326501155506e-05 -0.9999984610327323 -0.0017523562540164097
  outer loop
    vertex -4.511946372076636e-14 13.480000000000006 -2.7862144532125446
    vertex 3.2189155933135454 13.480273391991995 -3.036214453212544
    vertex 3.2189155933135454 13.480273391991995 -2.7862144532125446
  endloop
endfacet
facet normal 0.0 0.0 1.0
  outer loop
    vertex 3.2189155933135454 13.480273391991995 -2.7862144532125446
    vertex -4.511946372076636e-14 15.000000000000004 -2.7862144532125446
    vertex -4.511946372076636e-14 13.480000000000006 -2.7862144532125446
  endloop
endfacet
facet normal 0.0 0.0 1.0
  outer loop
    vertex -4.511946372076636e-14 15.000000000000004 -2.7862144532125446
    vertex 3.2189155933135454 13.480273391991995 -2.7862144532125446
    vertex 3.2189155933135454 15.000000000000007 -2.7862144532125446
  endloop
endfacet
facet normal 0.0 0.0 1.0
  outer loop
    vertex 9.28507037407404 13.480788608402976 -3.036214453212544
    vertex 3.2189155933135454 15.000000000000007 -3.036214453212544
    vertex 3.2189155933135454 13.480273391991995 -3.036214453212544
  endloop
endfacet
facet normal 0.0 0.0 1.0
  outer loop
    vertex 3.2189155933135454 15.000000000000007 -3.036214453212544
    vertex 9.28507037407404 13.480788608402976 -3.036214453212544
    vertex 9.28507037407404 15.000000000000004 -3.036214453212544
  endloop
endfacet
facet normal 1.0 0.0 0.0
  outer loop
    vertex 3.2189155933135454 15.000000000000007 -3.036214453212544
    vertex 3.2189155933135454 13.480273391991995 -2.7862144532125446
    vertex 3.2189155933135454 13.480273391991995 -3.036214453212544
  endloop
endfacet
facet normal 1.0 0.0 0.0
  outer loop
    vertex 3.2189155933135454 13.480273391991995 -2.7862144532125446
    vertex 3.2189155933135454 15.000000000000007 -3.036214453212544
    vertex 3.2189155933135454 15.000000000000007 -2.7862144532125446
  endloop
endfacet
facet normal -1.0 0.0 0.0
  outer loop
    vertex 9.28507037407404 15.000000000000004 -2.7862144532125446
    vertex 9.28507037407404 13.480788608402976 -3.036214453212544
    vertex 9.28507037407404 13.480788608402976 -2.7862144532125446
  endloop
endfacet
facet normal -1.0 0.0 0.0
  outer loop
    vertex 9.28507037407404 13.480788608402976 -3.036214453212544
    vertex 9.28507037407404 15.000000000000004 -2.7862144532125446
    vertex 9.28507037407404 15.000000000000004 -3.036214453212544
  endloop
endfacet
endsolid mfdbuttons2.6
