solid mfdbuttons2.5
facet normal 0.0 0.0 1.0
  outer loop
    vertex 219.93377392229982 7.266895878354731 68.656972900811
    vertex 204.9337739222998 22.26689587835473 68.656972900811
    vertex 204.9337739222998 7.266895878354731 68.656972900811
  endloop
endfacet
facet normal 0.0 0.0 1.0
  outer loop
    vertex 204.9337739222998 22.26689587835473 68.656972900811
    vertex 219.93377392229982 7.266895878354731 68.656972900811
    vertex 219.93377392229982 22.26689587835473 68.656972900811
  endloop
endfacet
facet normal 0.0 1.0 0.0
  outer loop
    vertex 204.9337739222998 22.26689587835473 68.656972900811
    vertex 219.93377392229982 22.26689587835473 66.6087853518003
    vertex 204.9337739222998 22.26689587835473 66.6087853518003
  endloop
endfacet
facet normal 0.0 1.0 0.0
  outer loop
    vertex 219.93377392229982 22.26689587835473 66.6087853518003
    vertex 204.9337739222998 22.26689587835473 68.656972900811
    vertex 219.93377392229982 22.26689587835473 68.656972900811
  endloop
endfacet
facet normal 0.0 -1.0 0.0
  outer loop
    vertex 219.93377392229982 7.266895878354731 68.656972900811
    vertex 204.9337739222998 7.266895878354731 66.6087853518003
    vertex 219.93377392229982 7.266895878354731 66.6087853518003
  endloop
endfacet
facet normal 0.0 -1.0 0.0
  outer loop
    vertex 204.9337739222998 7.266895878354731 66.6087853518003
    vertex 219.93377392229982 7.266895878354731 68.656972900811
    vertex 204.9337739222998 7.266895878354731 68.656972900811
  endloop
endfacet
facet normal 1.0 0.0 0.0
  outer loop
    vertex 219.93377392229982 22.26689587835473 66.6087853518003
    vertex 219.93377392229982 7.266895878354731 68.656972900811
    vertex 219.93377392229982 7.266895878354731 66.6087853518003
  endloop
endfacet
facet normal 1.0 0.0 0.0
  outer loop
    vertex 219.93377392229982 7.266895878354731 68.656972900811
    vertex 219.93377392229982 22.26689587835473 66.6087853518003
    vertex 219.93377392229982 22.26689587835473 68.656972900811
  endloop
endfacet
facet normal -1.0 -0.0 -0.0
  outer loop
    vertex 204.9337739222998 22.26689587835473 68.656972900811
    vertex 204.9337739222998 7.266895878354731 66.6087853518003
    vertex 204.9337739222998 7.266895878354731 68.656972900811
  endloop
endfacet
facet normal -1.0 -0.0 -0.0
  outer loop
    vertex 204.9337739222998 7.266895878354731 66.6087853518003
    vertex 204.9337739222998 22.26689587835473 68.656972900811
    vertex 204.9337739222998 22.26689587835473 66.6087853518003
  endloop
endfacet
facet normal 1.0 0.0 0.0
  outer loop
    vertex 215.37639892229916 17.70952087835468 66.00878535180028
    vertex 215.37639892229916 11.824270878354726 66.6087853518003
    vertex 215.37639892229916 11.824270878354726 66.00878535180028
  endloop
endfacet
facet normal 1.0 0.0 0.0
  outer loop
    vertex 215.37639892229916 11.824270878354726 66.6087853518003
    vertex 215.37639892229916 17.70952087835468 66.00878535180028
    vertex 215.37639892229916 17.70952087835468 66.6087853518003
  endloop
endfacet
facet normal 0.0 -1.0 0.0
  outer loop
    vertex 215.37639892229916 11.824270878354726 66.6087853518003
    vertex 209.4911489222991 11.824270878354726 66.00878535180028
    vertex 215.37639892229916 11.824270878354726 66.00878535180028
  endloop
endfacet
facet normal 0.0 -1.0 0.0
  outer loop
    vertex 209.4911489222991 11.824270878354726 66.00878535180028
    vertex 215.37639892229916 11.824270878354726 66.6087853518003
    vertex 209.4911489222991 11.824270878354726 66.6087853518003
  endloop
endfacet
facet normal -1.0 0.0 0.0
  outer loop
    vertex 209.4911489222991 17.70952087835468 66.6087853518003
    vertex 209.4911489222991 11.824270878354726 66.00878535180028
    vertex 209.4911489222991 11.824270878354726 66.6087853518003
  endloop
endfacet
facet normal -1.0 0.0 0.0
  outer loop
    vertex 209.4911489222991 11.824270878354726 66.00878535180028
    vertex 209.4911489222991 17.70952087835468 66.6087853518003
    vertex 209.4911489222991 17.70952087835468 66.00878535180028
  endloop
endfacet
facet normal 0.0 1.0 0.0
  outer loop
    vertex 209.4911489222991 17.70952087835468 66.6087853518003
    vertex 215.37639892229916 17.70952087835468 66.00878535180028
    vertex 209.4911489222991 17.70952087835468 66.00878535180028
  endloop
endfacet
facet normal 0.0 1.0 0.0
  outer loop
    vertex 215.37639892229916 17.70952087835468 66.00878535180028
    vertex 209.4911489222991 17.70952087835468 66.6087853518003
    vertex 215.37639892229916 17.70952087835468 66.6087853518003
  endloop
endfacet
facet normal 0.0 0.0 -1.0
  outer loop
    vertex 204.9337739222998 22.26689587835473 66.6087853518003
    vertex 209.4911489222991 17.70952087835468 66.6087853518003
    vertex 204.9337739222998 7.266895878354731 66.6087853518003
  endloop
endfacet
facet normal 0.0 0.0 -1.0
  outer loop
    vertex 209.4911489222991 17.70952087835468 66.6087853518003
    vertex 204.9337739222998 22.26689587835473 66.6087853518003
    vertex 219.93377392229982 22.26689587835473 66.6087853518003
  endloop
endfacet
facet normal 0.0 0.0 -1.0
  outer loop
    vertex 209.4911489222991 17.70952087835468 66.6087853518003
    vertex 219.93377392229982 22.26689587835473 66.6087853518003
    vertex 215.37639892229916 17.70952087835468 66.6087853518003
  endloop
endfacet
facet normal 0.0 0.0 -1.0
  outer loop
    vertex 215.37639892229916 17.70952087835468 66.6087853518003
    vertex 219.93377392229982 22.26689587835473 66.6087853518003
    vertex 215.37639892229916 11.824270878354726 66.6087853518003
  endloop
endfacet
facet normal 0.0 0.0 -1.0
  outer loop
    vertex 204.9337739222998 7.266895878354731 66.6087853518003
    vertex 209.4911489222991 11.824270878354726 66.6087853518003
    vertex 219.93377392229982 7.266895878354731 66.6087853518003
  endloop
endfacet
facet normal 0.0 0.0 -1.0
  outer loop
    vertex 209.4911489222991 11.824270878354726 66.6087853518003
    vertex 204.9337739222998 7.266895878354731 66.6087853518003
    vertex 209.4911489222991 17.70952087835468 66.6087853518003
  endloop
endfacet
facet normal 0.0 0.0 -1.0
  outer loop
    vertex 219.93377392229982 7.266895878354731 66.6087853518003
    vertex 209.4911489222991 11.824270878354726 66.6087853518003
    vertex 215.37639892229916 11.824270878354726 66.6087853518003
  endloop
endfacet
facet normal 0.0 0.0 -1.0
  outer loop
    vertex 219.93377392229982 7.266895878354731 66.6087853518003
    vertex 215.37639892229916 11.824270878354726 66.6087853518003
    vertex 219.93377392229982 22.26689587835473 66.6087853518003
  endloop
endfacet
facet normal 0.0 0.0 -1.0
  outer loop
    vertex 215.37639892229916 17.70952087835468 66.00878535180028
    vertex 209.4911489222991 11.824270878354726 66.00878535180028
    vertex 209.4911489222991 17.70952087835468 66.00878535180028
  endloop
endfacet
facet normal 0.0 0.0 -1.0
  outer loop
    vertex 209.4911489222991 11.824270878354726 66.00878535180028
    vertex 215.37639892229916 17.70952087835468 66.00878535180028
    vertex 215.37639892229916 11.824270878354726 66.00878535180028
  endloop
endfacet
endsolid mfdbuttons2.5
